<?xml version="1.0" encoding="UTF-8"?>
<svg version="1.1" xmlns="http://www.w3.org/2000/svg" width="256" height="256">
<path d="M0 0 C2.97 0 5.94 0 9 0 C9.66 1.98 10.32 3.96 11 6 C11.28875 5.195625 11.5775 4.39125 11.875 3.5625 C13 1 13 1 15 0 C17.06025816 -0.10703304 19.12401157 -0.14887984 21.18701172 -0.16113281 C22.48951874 -0.17074036 23.79202576 -0.1803479 25.13400269 -0.19024658 C26.56589584 -0.19509835 27.99779103 -0.19937624 29.4296875 -0.203125 C30.90023804 -0.20888078 32.37078858 -0.21463846 33.84133911 -0.22039795 C36.93329212 -0.23091759 40.0252191 -0.23675198 43.1171875 -0.24023438 C47.04858001 -0.24568022 50.97961932 -0.26961892 54.91090202 -0.29820633 C57.95499611 -0.31699634 60.99900854 -0.32204721 64.04315567 -0.32357025 C65.49020414 -0.32656745 66.9372522 -0.33449478 68.38424301 -0.34775543 C83.91223001 -0.47974082 96.63584979 1.94637037 108.3125 12.75 C117.65502892 22.58424097 118.46587431 33.19271364 118.27734375 46.0546875 C117.89397728 56.24346209 113.14736761 63.77787809 106.1171875 70.91015625 C96.67032116 79.63461516 86.66646828 82.37794023 74 82.125 C72.69482422 82.11146484 72.69482422 82.11146484 71.36328125 82.09765625 C69.2420658 82.07434619 67.12099438 82.03848579 65 82 C65.05800781 83.16917969 65.11601562 84.33835937 65.17578125 85.54296875 C65.22269449 87.0911058 65.26819298 88.63928617 65.3125 90.1875 C65.35439453 90.95642578 65.39628906 91.72535156 65.43945312 92.51757812 C65.53183483 96.82256573 65.41062804 98.47381835 62.66796875 101.98828125 C58.69632595 104.98300459 55.86100924 105.12127322 51.01953125 105.09765625 C49.85615234 105.09443359 48.69277344 105.09121094 47.49414062 105.08789062 C46.27919922 105.07951172 45.06425781 105.07113281 43.8125 105.0625 C42.58595703 105.05798828 41.35941406 105.05347656 40.09570312 105.04882812 C37.06375332 105.03703065 34.03190094 105.02056921 31 105 C31.020625 106.134375 31.04125 107.26875 31.0625 108.4375 C31 112 31 112 30 113 C29.86722641 115.22764582 29.76906091 117.45739181 29.6875 119.6875 C29.20362689 127.01259452 28.30841027 130.06969376 22.8125 134.9375 C18.69699949 136.49224464 15.19566555 136.26934085 11 135 C8.29447612 132.80176185 6.55221667 131.10443333 5 128 C4.90817917 125.8452107 4.88249538 123.68750282 4.88647461 121.53076172 C4.88632858 120.86722687 4.88618256 120.20369202 4.8860321 119.52005005 C4.88672969 117.32322947 4.89451486 115.1264933 4.90234375 112.9296875 C4.90420848 111.40796963 4.90563212 109.88625116 4.90663147 108.36453247 C4.91045233 104.35648953 4.92027896 100.34848274 4.93133545 96.3404541 C4.94155882 92.25171396 4.94613108 88.16296799 4.95117188 84.07421875 C4.9619016 76.04946256 4.97897287 68.02473578 5 60 C4.28972656 60.01160156 3.57945313 60.02320313 2.84765625 60.03515625 C1.92855469 60.04417969 1.00945312 60.05320313 0.0625 60.0625 C-0.85402344 60.07410156 -1.77054687 60.08570313 -2.71484375 60.09765625 C-5 60 -5 60 -6 59 C-6.125 56 -6.125 56 -6 53 C-5 52 -5 52 -2.71484375 51.90234375 C-1.34005859 51.91974609 -1.34005859 51.91974609 0.0625 51.9375 C0.98160156 51.94652344 1.90070313 51.95554688 2.84765625 51.96484375 C3.55792969 51.97644531 4.26820312 51.98804688 5 52 C5 50.02 5 48.04 5 46 C3.700625 46.020625 2.40125 46.04125 1.0625 46.0625 C-0.29165633 46.08399454 -1.64756083 46.07148199 -3 46 C-4 45 -4 45 -4.09765625 42.93359375 C-4.06510417 40.62239583 -4.03255208 38.31119792 -4 36 C-0.37 36 3.26 36 7 36 C7.66 34.02 8.32 32.04 9 30 C7.35 29.67 5.7 29.34 4 29 C4 26.36 4 23.72 4 21 C6.31 21 8.62 21 11 21 C11 19.68 11 18.36 11 17 C9.02 16.67 7.04 16.34 5 16 C5.33 15.01 5.66 14.02 6 13 C8.64 13 11.28 13 14 13 C14 12.01 14 11.02 14 10 C13.00097656 10.01160156 12.00195312 10.02320312 10.97265625 10.03515625 C9.68230469 10.04417969 8.39195313 10.05320312 7.0625 10.0625 C5.77472656 10.07410156 4.48695312 10.08570312 3.16015625 10.09765625 C0 10 0 10 -1 9 C-1.23728814 2.47457627 -1.23728814 2.47457627 0 0 Z M36 13 C35.92674832 15.86267567 35.90761795 18.700719 35.9375 21.5625 C35.94201172 22.36880859 35.94652344 23.17511719 35.95117188 24.00585938 C35.96299482 26.00393756 35.98093086 28.00197783 36 30 C37.30670654 30.01458252 38.61341309 30.02916504 39.9597168 30.04418945 C44.81481075 30.10222815 49.66944363 30.17946116 54.52416992 30.26245117 C56.62402861 30.29567422 58.72397603 30.3237143 60.82397461 30.34643555 C63.84527344 30.38002936 66.86576101 30.43234834 69.88671875 30.48828125 C70.82335861 30.49467117 71.75999847 30.5010611 72.72502136 30.50764465 C77.59193216 30.61705127 81.09832374 30.75887949 85 34 C87.4915904 37.7373856 87.45793285 39.57331583 87 44 C84.86320715 47.38939556 83.8225233 48.72582557 80 50 C78.57873626 50.10838574 77.15322124 50.1657795 75.72802734 50.18945312 C74.44187027 50.21452942 74.44187027 50.21452942 73.12973022 50.2401123 C72.20777863 50.25368774 71.28582703 50.26726318 70.3359375 50.28125 C69.38812408 50.29965942 68.44031067 50.31806885 67.46377563 50.33703613 C63.40337518 50.41580498 59.34280968 50.48365083 55.28222656 50.55224609 C52.32087626 50.60382602 49.35967516 50.66111739 46.3984375 50.71875 C45.47243744 50.73232544 44.54643738 50.74590088 43.59237671 50.7598877 C42.74124298 50.77660522 41.89010925 50.79332275 41.01318359 50.81054688 C40.26056244 50.82307495 39.50794128 50.83560303 38.73251343 50.84851074 C36.97015136 50.81557352 36.97015136 50.81557352 36 52 C35.91128727 55.02977804 35.8848065 58.03667022 35.90234375 61.06640625 C35.9037587 61.97502914 35.90517365 62.88365204 35.90663147 63.81980896 C35.91224807 66.73407221 35.92480335 69.64825981 35.9375 72.5625 C35.94251286 74.53320202 35.94707614 76.50390524 35.95117188 78.47460938 C35.96222289 83.31643559 35.97949862 88.15820495 36 93 C38.81256281 93.02684312 41.62487241 93.04676188 44.4375 93.0625 C45.23994141 93.07087891 46.04238281 93.07925781 46.86914062 93.08789062 C48.91295221 93.0965143 50.95683902 93.0522815 53 93 C54.26181095 91.96207228 54.26181095 91.96207228 54.11352539 89.68334961 C54.10567017 88.18300171 54.10567017 88.18300171 54.09765625 86.65234375 C54.09282227 85.03295898 54.09282227 85.03295898 54.08789062 83.38085938 C54.07951172 82.24455078 54.07113281 81.10824219 54.0625 79.9375 C54.05798828 78.79732422 54.05347656 77.65714844 54.04882812 76.48242188 C54.03699747 73.65489649 54.0205141 70.8274736 54 68 C54.89195068 68.02094727 55.78390137 68.04189453 56.70288086 68.06347656 C60.05210968 68.13216086 63.40057668 68.18204327 66.75024414 68.21972656 C68.19242252 68.23968751 69.6345216 68.26686663 71.07641602 68.30175781 C80.83713762 68.53181988 88.88057297 68.28603193 96.6875 61.75 C97.450625 60.8425 98.21375 59.935 99 59 C99.515625 58.42378906 100.03125 57.84757812 100.5625 57.25390625 C105.82702411 50.96431855 107.42148976 44.51629621 106.875 36.375 C105.620062 28.27494561 101.45999594 21.98089707 95 17 C87.08130925 12.51772222 79.86111788 11.84780342 70.921875 11.8671875 C69.47110565 11.86575241 69.47110565 11.86575241 67.99102783 11.86428833 C65.95365331 11.86360944 63.91627659 11.86544341 61.87890625 11.86962891 C58.74734709 11.87500455 55.61592985 11.86966216 52.484375 11.86328125 C50.50520802 11.86394163 48.52604112 11.86522195 46.546875 11.8671875 C45.60527527 11.86516327 44.66367554 11.86313904 43.69354248 11.86105347 C42.82884338 11.86420563 41.96414429 11.86735779 41.07324219 11.87060547 C40.30888855 11.87140106 39.54453491 11.87219666 38.75701904 11.87301636 C36.97251767 11.80938365 36.97251767 11.80938365 36 13 Z M16 22 C16 24.31 16 26.62 16 29 C17.65 29 19.3 29 21 29 C21 26.69 21 24.38 21 22 C19.35 22 17.7 22 16 22 Z M14 36 C14 36.66 14 37.32 14 38 C16.64 38 19.28 38 22 38 C22 37.34 22 36.68 22 36 C19.36 36 16.72 36 14 36 Z M27 36 C30.76687864 37.88343932 32.02958963 38.22057835 36 38 C36 37.34 36 36.68 36 36 C33.03 36 30.06 36 27 36 Z M12 43 C12.33 43.66 12.66 44.32 13 45 C17.455 44.505 17.455 44.505 22 44 C22 43.67 22 43.34 22 43 C18.7 43 15.4 43 12 43 Z M27 43 C27 43.33 27 43.66 27 44 C29.97 44 32.94 44 36 44 C36 43.67 36 43.34 36 43 C33.03 43 30.06 43 27 43 Z M11 54 C11 55.32 11 56.64 11 58 C14.96 58 18.92 58 23 58 C23 56.68 23 55.36 23 54 C19.04 54 15.08 54 11 54 Z M15 67 C15 68.65 15 70.3 15 72 C16.32 72 17.64 72 19 72 C19 70.35 19 68.7 19 67 C17.68 67 16.36 67 15 67 Z " fill="#1378C3" transform="translate(76,60)"/>
<path d="M0 0 C2.97 0 5.94 0 9 0 C9.66 1.98 10.32 3.96 11 6 C11.28875 5.195625 11.5775 4.39125 11.875 3.5625 C13 1 13 1 15 0 C17.12417 -0.09175034 19.25129455 -0.11750694 21.37744141 -0.11352539 C22.03122269 -0.11367142 22.68500397 -0.11381744 23.3585968 -0.1139679 C25.52295227 -0.11327036 27.68722204 -0.1054854 29.8515625 -0.09765625 C31.35086012 -0.09579151 32.85015834 -0.09436787 34.34945679 -0.09336853 C38.29831622 -0.08954779 42.24713896 -0.07972128 46.19598389 -0.06866455 C50.22440087 -0.05844091 54.25282378 -0.05386887 58.28125 -0.04882812 C66.18751685 -0.03809862 74.09375386 -0.0210275 82 0 C82 0.33 82 0.66 82 1 C78.37 1.33 74.74 1.66 71 2 C71.495 2.495 71.495 2.495 72 3 C73.7717719 2.93983797 75.54258679 2.85100672 77.3125 2.75 C87.51615748 2.68940821 95.41323105 7.03283708 103.2578125 13.25390625 C105.06025675 15.06039185 106.00836756 16.66404111 107 19 C102.45357942 19 102.05290333 18.53834665 98.8125 15.6875 C94.46785657 12.12229426 90.42120352 10.34568882 85 9 C85 8.34 85 7.68 85 7 C83.80697266 7.23396484 83.80697266 7.23396484 82.58984375 7.47265625 C77.43442049 8.22998176 72.27988594 8.34998011 67.07617188 8.51757812 C61.34281131 8.76009058 56.20610817 9.39694591 51 12 C48.62876754 12.23029956 46.25258057 12.41119942 43.875 12.5625 C42.59367187 12.64628906 41.31234375 12.73007813 39.9921875 12.81640625 C39.00476563 12.87699219 38.01734375 12.93757813 37 13 C36.90912109 14.69769531 36.90912109 14.69769531 36.81640625 16.4296875 C36.73200083 17.91147145 36.64735283 19.3932416 36.5625 20.875 C36.52318359 21.62136719 36.48386719 22.36773437 36.44335938 23.13671875 C36.11328125 28.7734375 36.11328125 28.7734375 35 31 C35 32.32 35 33.64 35 35 C35.99 35.33 36.98 35.66 38 36 C38 36.99 38 37.98 38 39 C36.35 39 34.7 39 33 39 C33 39.66 33 40.32 33 41 C34.65 41 36.3 41 38 41 C38 42.65 38 44.3 38 46 C33.33333333 46 28.66666667 46 24 46 C23.34 47.32 22.68 48.64 22 50 C22.66 50 23.32 50 24 50 C24.33 49.01 24.66 48.02 25 47 C26.36884358 51.51718381 25.47075246 54.58774263 24 59 C19.38 59 14.76 59 10 59 C10 60.98 10 62.96 10 65 C10.66 65.33 11.32 65.66 12 66 C13.0703125 68.21484375 13.0703125 68.21484375 14.125 70.9375 C14.47820312 71.83339844 14.83140625 72.72929687 15.1953125 73.65234375 C16 76 16 76 16 78 C16.99 78 17.98 78 19 78 C19 89.88 19 101.76 19 114 C19.66 114 20.32 114 21 114 C21.99 117.3 22.98 120.6 24 124 C22.02 124.99 22.02 124.99 20 126 C19.67 126.99 19.34 127.98 19 129 C17.35 129 15.7 129 14 129 C14 128.34 14 127.68 14 127 C12.02 126.34 10.04 125.68 8 125 C8 126.65 8 128.3 8 130 C8.66 130 9.32 130 10 130 C10.66 130.66 11.32 131.32 12 132 C15.38308224 132.61510586 18.56114107 133 22 133 C22.433125 131.824375 22.433125 131.824375 22.875 130.625 C24 128 24 128 26 126 C26.3063859 123.26565038 26.5113336 120.61720179 26.625 117.875 C26.66367188 117.12089844 26.70234375 116.36679688 26.7421875 115.58984375 C26.83651031 113.72696816 26.91934662 111.86351745 27 110 C26.34 110 25.68 110 25 110 C24.67 108.02 24.34 106.04 24 104 C26.31 104 28.62 104 31 104 C31.09765625 110.15234375 31.09765625 110.15234375 31 112 C30.67 112.33 30.34 112.66 30 113 C29.86722641 115.22764582 29.76906091 117.45739181 29.6875 119.6875 C29.20362689 127.01259452 28.30841027 130.06969376 22.8125 134.9375 C18.69699949 136.49224464 15.19566555 136.26934085 11 135 C8.29447612 132.80176185 6.55221667 131.10443333 5 128 C4.90817917 125.8452107 4.88249538 123.68750282 4.88647461 121.53076172 C4.88632858 120.86722687 4.88618256 120.20369202 4.8860321 119.52005005 C4.88672969 117.32322947 4.89451486 115.1264933 4.90234375 112.9296875 C4.90420848 111.40796963 4.90563212 109.88625116 4.90663147 108.36453247 C4.91045233 104.35648953 4.92027896 100.34848274 4.93133545 96.3404541 C4.94155882 92.25171396 4.94613108 88.16296799 4.95117188 84.07421875 C4.9619016 76.04946256 4.97897287 68.02473578 5 60 C4.28972656 60.01160156 3.57945313 60.02320313 2.84765625 60.03515625 C1.92855469 60.04417969 1.00945312 60.05320313 0.0625 60.0625 C-0.85402344 60.07410156 -1.77054687 60.08570313 -2.71484375 60.09765625 C-5 60 -5 60 -6 59 C-6.125 56 -6.125 56 -6 53 C-5 52 -5 52 -2.71484375 51.90234375 C-1.34005859 51.91974609 -1.34005859 51.91974609 0.0625 51.9375 C0.98160156 51.94652344 1.90070313 51.95554688 2.84765625 51.96484375 C3.55792969 51.97644531 4.26820312 51.98804688 5 52 C5 50.02 5 48.04 5 46 C3.700625 46.020625 2.40125 46.04125 1.0625 46.0625 C-0.29165633 46.08399454 -1.64756083 46.07148199 -3 46 C-4 45 -4 45 -4.09765625 42.93359375 C-4.06510417 40.62239583 -4.03255208 38.31119792 -4 36 C-0.37 36 3.26 36 7 36 C7.66 34.02 8.32 32.04 9 30 C7.35 29.67 5.7 29.34 4 29 C4 26.36 4 23.72 4 21 C6.31 21 8.62 21 11 21 C11 19.68 11 18.36 11 17 C9.02 16.67 7.04 16.34 5 16 C5.33 15.01 5.66 14.02 6 13 C8.64 13 11.28 13 14 13 C14 12.01 14 11.02 14 10 C13.00097656 10.01160156 12.00195312 10.02320312 10.97265625 10.03515625 C9.68230469 10.04417969 8.39195313 10.05320312 7.0625 10.0625 C5.77472656 10.07410156 4.48695312 10.08570312 3.16015625 10.09765625 C0 10 0 10 -1 9 C-1.23728814 2.47457627 -1.23728814 2.47457627 0 0 Z M16 22 C16 24.31 16 26.62 16 29 C17.65 29 19.3 29 21 29 C21 26.69 21 24.38 21 22 C19.35 22 17.7 22 16 22 Z M14 36 C14 36.66 14 37.32 14 38 C16.64 38 19.28 38 22 38 C22 37.34 22 36.68 22 36 C19.36 36 16.72 36 14 36 Z M27 36 C30.76687864 37.88343932 32.02958963 38.22057835 36 38 C36 37.34 36 36.68 36 36 C33.03 36 30.06 36 27 36 Z M12 43 C12.33 43.66 12.66 44.32 13 45 C17.455 44.505 17.455 44.505 22 44 C22 43.67 22 43.34 22 43 C18.7 43 15.4 43 12 43 Z M27 43 C27 43.33 27 43.66 27 44 C29.97 44 32.94 44 36 44 C36 43.67 36 43.34 36 43 C33.03 43 30.06 43 27 43 Z M11 54 C11 55.32 11 56.64 11 58 C14.96 58 18.92 58 23 58 C23 56.68 23 55.36 23 54 C19.04 54 15.08 54 11 54 Z " fill="#2AA1D6" transform="translate(76,60)"/>
<path d="M0 0 C30.00610118 -1.13132052 30.00610118 -1.13132052 42.4375 9.3125 C49.60463621 16.24992031 54.89365626 24.6170533 55.43359375 34.8046875 C55.45700107 36.49463007 55.45774894 38.18501664 55.4375 39.875 C55.42992676 40.75833008 55.42235352 41.64166016 55.41455078 42.55175781 C55.12805109 53.87372354 51.02196147 61.89058266 43.1171875 69.91015625 C33.67032116 78.63461516 23.66646828 81.37794023 11 81.125 C9.69482422 81.11146484 9.69482422 81.11146484 8.36328125 81.09765625 C6.2420658 81.07434619 4.12099438 81.03848579 2 81 C2 86.61 2 92.22 2 98 C-0.97 98.495 -0.97 98.495 -4 99 C-4 98.34 -4 97.68 -4 97 C-5.485 97.495 -5.485 97.495 -7 98 C-10.12063575 98.25074502 -13.24531766 98.23120311 -16.375 98.25 C-17.22578125 98.270625 -18.0765625 98.29125 -18.953125 98.3125 C-23.74940535 98.34238337 -27.18038431 98.25656477 -31 95 C-32.1985734 91.40427979 -32.28789439 88.01222043 -32.421875 84.26171875 C-32.44977112 83.50333206 -32.47766724 82.74494537 -32.50640869 81.96357727 C-32.56276107 80.35902885 -32.61638381 78.75438259 -32.66748047 77.1496582 C-32.74936646 74.70640314 -32.85301547 72.26466466 -32.95703125 69.82226562 C-33.00916787 68.26046132 -33.05999146 66.69861253 -33.109375 65.13671875 C-33.14359558 64.41151535 -33.17781616 63.68631195 -33.21307373 62.93913269 C-33.33032414 58.18157604 -32.54873327 55.02267633 -30 51 C-29.01 50.505 -29.01 50.505 -28 50 C-27.67 63.86 -27.34 77.72 -27 92 C-18.585 91.505 -18.585 91.505 -10 91 C-9.67 83.08 -9.34 75.16 -9 67 C-6.86660156 66.97421875 -4.73320312 66.9484375 -2.53515625 66.921875 C-0.43989582 66.88332268 1.65512937 66.83820578 3.75024414 66.79248047 C5.19218472 66.76447537 6.63427298 66.74316032 8.07641602 66.72900391 C19.11451826 66.62335592 19.11451826 66.62335592 29.40063477 62.84863281 C31 62 31 62 33 62 C33.268125 61.41476563 33.53625 60.82953125 33.8125 60.2265625 C35.00750798 57.98592254 36.35851045 56.30375022 38 54.375 C42.3612615 48.62751846 43.35229438 42.48546245 42.875 35.375 C41.64987696 27.55623722 38.17301893 22.43962418 32.0859375 17.47265625 C25.57419738 12.8754165 18.77393839 11.91667051 10.94921875 11.68359375 C9.96100883 11.6524221 9.96100883 11.6524221 8.95283508 11.62062073 C6.86448815 11.55564511 4.77602388 11.49648425 2.6875 11.4375 C1.2649622 11.39426521 -0.15756406 11.3506494 -1.58007812 11.30664062 C-5.05326297 11.20001784 -8.52657726 11.09860652 -12 11 C-10.17040316 8.66218182 -9.12827624 8.03049153 -6.19091797 7.33227539 C-3.10159238 7.01057898 -0.04915785 6.79558817 3.0546875 6.68359375 C4.71757812 6.62075195 4.71757812 6.62075195 6.4140625 6.55664062 C7.55617187 6.51732422 8.69828125 6.47800781 9.875 6.4375 C11.0403125 6.39431641 12.205625 6.35113281 13.40625 6.30664062 C16.27072625 6.20098371 19.13528321 6.09888201 22 6 C22 6.66 22 7.32 22 8 C22.969375 8.04125 23.93875 8.0825 24.9375 8.125 C30.00988673 8.82141375 34.16434262 11.72099131 38 15 C38 15.66 38 16.32 38 17 C39.65 17.33 41.3 17.66 43 18 C42.80528889 16.05000871 42.80528889 16.05000871 42 14 C40.20067421 12.93283296 40.20067421 12.93283296 38 12 C37.25492187 11.37609375 36.50984375 10.7521875 35.7421875 10.109375 C28.52345623 4.5565048 20.03910021 2.35011502 11.046875 2.921875 C10.37140625 2.94765625 9.6959375 2.9734375 9 3 C8.505 2.505 8.505 2.505 8 2 C6.65252916 1.76924918 5.29622435 1.58846937 3.9375 1.4375 C2.638125 1.293125 1.33875 1.14875 0 1 C0 0.67 0 0.34 0 0 Z " fill="#291A89" transform="translate(139,61)"/>
<path d="M0 0 C0.33 0 0.66 0 1 0 C1.33 1.65 1.66 3.3 2 5 C3.30670654 5.01458252 4.61341309 5.02916504 5.9597168 5.04418945 C10.81481075 5.10222815 15.66944363 5.17946116 20.52416992 5.26245117 C22.62402861 5.29567422 24.72397603 5.3237143 26.82397461 5.34643555 C29.84527344 5.38002936 32.86576101 5.43234834 35.88671875 5.48828125 C36.82335861 5.49467117 37.75999847 5.5010611 38.72502136 5.50764465 C44.74623975 5.64299974 48.35884825 6.44992245 52.8125 10.75 C54.57098729 14.08187066 54.51262487 16.28346973 54 20 C51.97632105 23.47359452 49.88983176 25.70338941 46 27 C44.61433488 27.0954178 43.2246211 27.13804512 41.83569336 27.14526367 C40.58440895 27.15483345 40.58440895 27.15483345 39.30784607 27.16459656 C38.4109053 27.16570938 37.51396454 27.1668222 36.58984375 27.16796875 C35.66659805 27.17129715 34.74335236 27.17462555 33.79212952 27.17805481 C31.84116108 27.18311632 29.89018398 27.18546337 27.93920898 27.18530273 C24.94565723 27.18749403 21.95247114 27.20567104 18.95898438 27.22460938 C17.06510543 27.22754242 15.17122473 27.22952781 13.27734375 27.23046875 C11.92889626 27.24124702 11.92889626 27.24124702 10.5532074 27.25224304 C9.30665123 27.2476281 9.30665123 27.2476281 8.03491211 27.24291992 C6.93595863 27.24505745 6.93595863 27.24505745 5.81480408 27.24723816 C4 27 4 27 2 25 C4.31 24.34 6.62 23.68 9 23 C7.35 22.67 5.7 22.34 4 22 C4 20.35 4 18.7 4 17 C2.02 17.33 0.04 17.66 -2 18 C-1.505 16.515 -1.505 16.515 -1 15 C0.65 15 2.3 15 4 15 C3.67 14.01 3.34 13.02 3 12 C2.34 11.67 1.68 11.34 1 11 C-0.37097852 7.43545584 -0.07243154 3.76644005 0 0 Z " fill="#174FA7" transform="translate(110,84)"/>
<path d="M0 0 C0.66666667 1.33333333 1.33333333 2.66666667 2 4 C2.53625 5.03125 3.0725 6.0625 3.625 7.125 C5 10 5 10 5 12 C5.99 12 6.98 12 8 12 C8 23.88 8 35.76 8 48 C8.66 48 9.32 48 10 48 C10.99 51.3 11.98 54.6 13 58 C11.68 58.66 10.36 59.32 9 60 C8.67 60.99 8.34 61.98 8 63 C6.35 63 4.7 63 3 63 C3 62.34 3 61.68 3 61 C1.02 60.34 -0.96 59.68 -3 59 C-3 60.65 -3 62.3 -3 64 C-2.34 64 -1.68 64 -1 64 C-0.34 64.66 0.32 65.32 1 66 C4.38308224 66.61510586 7.56114107 67 11 67 C11.433125 65.824375 11.433125 65.824375 11.875 64.625 C13 62 13 62 15 60 C15.3063859 57.26565038 15.5113336 54.61720179 15.625 51.875 C15.66367188 51.12089844 15.70234375 50.36679688 15.7421875 49.58984375 C15.83651031 47.72696816 15.91934662 45.86351745 16 44 C15.34 44 14.68 44 14 44 C13.67 42.02 13.34 40.04 13 38 C15.31 38 17.62 38 20 38 C20.09765625 44.15234375 20.09765625 44.15234375 20 46 C19.67 46.33 19.34 46.66 19 47 C18.86722641 49.22764582 18.76906091 51.45739181 18.6875 53.6875 C18.20362689 61.01259452 17.30841027 64.06969376 11.8125 68.9375 C7.79308016 70.45594749 4.06239525 70.4468805 0 69 C-2.51771136 67.34827404 -3.56795998 66.56547364 -5 64 C-5.71513755 59.53623227 -5.58031104 55.11575448 -5.48828125 50.60546875 C-5.48120651 49.30297684 -5.47413177 48.00048492 -5.46684265 46.65852356 C-5.44781513 43.20736116 -5.39875439 39.75726261 -5.34332275 36.30651855 C-5.29203649 32.78066396 -5.26930883 29.25463627 -5.24414062 25.72851562 C-5.19062898 18.81857531 -5.10536972 11.90933883 -5 5 C-3.68 4.67 -2.36 4.34 -1 4 C-0.67 2.68 -0.34 1.36 0 0 Z " fill="#1080C9" transform="translate(87,126)"/>
<path d="M0 0 C0.33 0 0.66 0 1 0 C1.33 13.86 1.66 27.72 2 42 C10.415 41.505 10.415 41.505 19 41 C19.33 34.07 19.66 27.14 20 20 C20.33 20 20.66 20 21 20 C21.02887512 23.64581687 21.04675585 27.29160463 21.0625 30.9375 C21.07087891 31.97841797 21.07925781 33.01933594 21.08789062 34.09179688 C21.09272461 35.57583008 21.09272461 35.57583008 21.09765625 37.08984375 C21.10551147 38.46450806 21.10551147 38.46450806 21.11352539 39.86694336 C21 42 21 42 20 43 C17.13732433 43.07325168 14.299281 43.09238205 11.4375 43.0625 C10.63119141 43.05798828 9.82488281 43.05347656 8.99414062 43.04882812 C6.99606244 43.03700518 4.99802217 43.01906914 3 43 C3.33 43.66 3.66 44.32 4 45 C9.94 45 15.88 45 22 45 C23.74822266 41.50355468 24.25855926 40.30028401 24.4140625 36.671875 C24.46747803 35.5905127 24.46747803 35.5905127 24.52197266 34.48730469 C24.55597168 33.58399414 24.5899707 32.68068359 24.625 31.75 C24.810625 27.41875 24.810625 27.41875 25 23 C33.25 23 41.5 23 50 23 C49.67 24.32 49.34 25.64 49 27 C48.34 27 47.68 27 47 27 C47 27.66 47 28.32 47 29 C50.63 28.67 54.26 28.34 58 28 C53.49565567 30.25217217 50.43198971 31.13129723 45.453125 31.09765625 C44.60878906 31.09443359 43.76445312 31.09121094 42.89453125 31.08789062 C42.02183594 31.07951172 41.14914063 31.07113281 40.25 31.0625 C39.36183594 31.05798828 38.47367188 31.05347656 37.55859375 31.04882812 C35.37236684 31.03707422 33.18617472 31.01913966 31 31 C31 36.61 31 42.22 31 48 C28.03 48.495 28.03 48.495 25 49 C25 48.34 25 47.68 25 47 C23.515 47.495 23.515 47.495 22 48 C18.87936425 48.25074502 15.75468234 48.23120311 12.625 48.25 C11.77421875 48.270625 10.9234375 48.29125 10.046875 48.3125 C5.25059465 48.34238337 1.81961569 48.25656477 -2 45 C-3.1985734 41.40427979 -3.28789439 38.01222043 -3.421875 34.26171875 C-3.44977112 33.50333206 -3.47766724 32.74494537 -3.50640869 31.96357727 C-3.56276107 30.35902885 -3.61638381 28.75438259 -3.66748047 27.1496582 C-3.74936646 24.70640314 -3.85301547 22.26466466 -3.95703125 19.82226562 C-4.00916787 18.26046132 -4.05999146 16.69861253 -4.109375 15.13671875 C-4.14359558 14.41151535 -4.17781616 13.68631195 -4.21307373 12.93913269 C-4.33060908 8.17001429 -3.47638542 5.06551599 -1 1 C-0.67 0.67 -0.34 0.34 0 0 Z " fill="#15479D" transform="translate(110,111)"/>
<path d="M0 0 C30.00610118 -1.13132052 30.00610118 -1.13132052 42.4375 9.3125 C48.74460833 15.41745742 52.28491821 21.71185559 55 30 C55 30.66 55 31.32 55 32 C53.515 31.505 53.515 31.505 52 31 C51.67 35.29 51.34 39.58 51 44 C50.34 44 49.68 44 49 44 C48.938125 42.7625 48.87625 41.525 48.8125 40.25 C48.08958662 33.64948653 45.75057431 26.30906655 41.4609375 21.1484375 C40.04765776 19.7939976 40.04765776 19.7939976 38 20 C37.67 20.66 37.34 21.32 37 22 C36.57589844 21.60167969 36.15179688 21.20335938 35.71484375 20.79296875 C28.18004285 13.98680794 21.05762281 11.98469515 10.94921875 11.68359375 C9.96100883 11.6524221 9.96100883 11.6524221 8.95283508 11.62062073 C6.86448815 11.55564511 4.77602388 11.49648425 2.6875 11.4375 C1.2649622 11.39426521 -0.15756406 11.3506494 -1.58007812 11.30664062 C-5.05326297 11.20001784 -8.52657726 11.09860652 -12 11 C-10.17040316 8.66218182 -9.12827624 8.03049153 -6.19091797 7.33227539 C-3.10159238 7.01057898 -0.04915785 6.79558817 3.0546875 6.68359375 C4.71757812 6.62075195 4.71757812 6.62075195 6.4140625 6.55664062 C7.55617187 6.51732422 8.69828125 6.47800781 9.875 6.4375 C11.0403125 6.39431641 12.205625 6.35113281 13.40625 6.30664062 C16.27072625 6.20098371 19.13528321 6.09888201 22 6 C22 6.66 22 7.32 22 8 C22.969375 8.04125 23.93875 8.0825 24.9375 8.125 C30.00988673 8.82141375 34.16434262 11.72099131 38 15 C38 15.66 38 16.32 38 17 C39.65 17.33 41.3 17.66 43 18 C42.80528889 16.05000871 42.80528889 16.05000871 42 14 C40.20067421 12.93283296 40.20067421 12.93283296 38 12 C37.25492188 11.37609375 36.50984375 10.7521875 35.7421875 10.109375 C28.52345623 4.5565048 20.03910021 2.35011502 11.046875 2.921875 C10.37140625 2.94765625 9.6959375 2.9734375 9 3 C8.67 2.67 8.34 2.34 8 2 C6.65252916 1.76924918 5.29622435 1.58846937 3.9375 1.4375 C2.638125 1.293125 1.33875 1.14875 0 1 C0 0.67 0 0.34 0 0 Z " fill="#3D2599" transform="translate(139,61)"/>
<path d="M0 0 C0.66 0.66 1.32 1.32 2 2 C0.35 2.33 -1.3 2.66 -3 3 C-3.33 5.31 -3.66 7.62 -4 10 C-2.35 10 -0.7 10 1 10 C1 10.66 1 11.32 1 12 C-0.0725 11.731875 -1.145 11.46375 -2.25 11.1875 C-3.4875 11.125625 -4.725 11.06375 -6 11 C-8.49210521 13.30068019 -8.49210521 13.30068019 -10 16 C-8.68 16.33 -7.36 16.66 -6 17 C-6.33 18.65 -6.66 20.3 -7 22 C-3.7 22.33 -0.4 22.66 3 23 C3 23.99 3 24.98 3 26 C-1.33333333 26 -5.66666667 26 -10 26 C-9.814375 26.639375 -9.62875 27.27875 -9.4375 27.9375 C-9.293125 28.618125 -9.14875 29.29875 -9 30 C-9.33 30.33 -9.66 30.66 -10 31 C-10.10068462 33.42827613 -10.1387176 35.82198411 -10.125 38.25 C-10.12886719 38.91902344 -10.13273437 39.58804688 -10.13671875 40.27734375 C-10.12944823 43.9780363 -9.87843501 47.40259947 -9 51 C-11.475 51.495 -11.475 51.495 -14 52 C-14 70.81 -14 89.62 -14 109 C-14.33 109 -14.66 109 -15 109 C-15 86.56 -15 64.12 -15 41 C-18.3 41 -21.6 41 -25 41 C-26 40 -26 40 -26.125 37 C-26 34 -26 34 -25 33 C-23.31391034 32.92794489 -21.62499341 32.91613932 -19.9375 32.9375 C-19.01839844 32.94652344 -18.09929687 32.95554688 -17.15234375 32.96484375 C-16.44207031 32.97644531 -15.73179688 32.98804688 -15 33 C-15 31.02 -15 29.04 -15 27 C-16.299375 27.020625 -17.59875 27.04125 -18.9375 27.0625 C-20.29165633 27.08399454 -21.64756083 27.07148199 -23 27 C-24 26 -24 26 -24.09765625 23.93359375 C-24.06510417 21.62239583 -24.03255208 19.31119792 -24 17 C-20.37 17 -16.74 17 -13 17 C-12.34 15.02 -11.68 13.04 -11 11 C-12.32 10.67 -13.64 10.34 -15 10 C-13.865625 10.020625 -12.73125 10.04125 -11.5625 10.0625 C-8.18424326 10.41577477 -8.18424326 10.41577477 -7 9 C-6.63239269 6.67182036 -6.29758419 4.3381615 -6 2 C-4.02 1.34 -2.04 0.68 0 0 Z " fill="#59BCDB" transform="translate(96,79)"/>
<path d="M0 0 C1.38294718 0.01329757 2.76582404 0.03715018 4.1484375 0.0703125 C4.85484375 0.07933594 5.56125 0.08835937 6.2890625 0.09765625 C8.03399848 0.12123647 9.77876045 0.15710789 11.5234375 0.1953125 C11.5234375 0.5253125 11.5234375 0.8553125 11.5234375 1.1953125 C6.9034375 1.5253125 2.2834375 1.8553125 -2.4765625 2.1953125 C-2.56744141 3.89300781 -2.56744141 3.89300781 -2.66015625 5.625 C-2.74456167 7.10678395 -2.82920967 8.5885541 -2.9140625 10.0703125 C-2.95337891 10.81667969 -2.99269531 11.56304687 -3.03320312 12.33203125 C-3.36328125 17.96875 -3.36328125 17.96875 -4.4765625 20.1953125 C-4.4765625 21.5153125 -4.4765625 22.8353125 -4.4765625 24.1953125 C-3.4865625 24.5253125 -2.4965625 24.8553125 -1.4765625 25.1953125 C-1.4765625 26.1853125 -1.4765625 27.1753125 -1.4765625 28.1953125 C-3.1265625 28.1953125 -4.7765625 28.1953125 -6.4765625 28.1953125 C-6.4765625 28.8553125 -6.4765625 29.5153125 -6.4765625 30.1953125 C-4.8265625 30.1953125 -3.1765625 30.1953125 -1.4765625 30.1953125 C-1.4765625 31.8453125 -1.4765625 33.4953125 -1.4765625 35.1953125 C-6.14322917 35.1953125 -10.80989583 35.1953125 -15.4765625 35.1953125 C-16.1365625 36.5153125 -16.7965625 37.8353125 -17.4765625 39.1953125 C-16.8165625 39.1953125 -16.1565625 39.1953125 -15.4765625 39.1953125 C-15.1465625 38.2053125 -14.8165625 37.2153125 -14.4765625 36.1953125 C-13.10771892 40.71249631 -14.00581004 43.78305513 -15.4765625 48.1953125 C-17.78900042 48.22216662 -20.1015252 48.24164091 -22.4140625 48.2578125 C-23.70183594 48.26941406 -24.98960938 48.28101563 -26.31640625 48.29296875 C-29.4765625 48.1953125 -29.4765625 48.1953125 -30.4765625 47.1953125 C-30.63431288 42.46280097 -30.41699398 38.89746989 -29.4765625 34.1953125 C-25.1865625 34.1953125 -20.8965625 34.1953125 -16.4765625 34.1953125 C-16.4765625 33.2053125 -16.4765625 32.2153125 -16.4765625 31.1953125 C-20.4365625 31.1953125 -24.3965625 31.1953125 -28.4765625 31.1953125 C-25.4765625 27.1953125 -25.4765625 27.1953125 -22.99609375 26.8046875 C-21.65611328 26.87429687 -21.65611328 26.87429687 -20.2890625 26.9453125 C-19.38800781 26.98140625 -18.48695312 27.0175 -17.55859375 27.0546875 C-16.52798828 27.12429687 -16.52798828 27.12429687 -15.4765625 27.1953125 C-15.8065625 26.2053125 -16.1365625 25.2153125 -16.4765625 24.1953125 C-13.8365625 23.5353125 -11.1965625 22.8753125 -8.4765625 22.1953125 C-8.1465625 18.2353125 -7.8165625 14.2753125 -7.4765625 10.1953125 C-6.8165625 10.1953125 -6.1565625 10.1953125 -5.4765625 10.1953125 C-5.5178125 8.9165625 -5.5590625 7.6378125 -5.6015625 6.3203125 C-5.671875 4.140625 -5.671875 4.140625 -5.4765625 2.1953125 C-3.4765625 0.1953125 -3.4765625 0.1953125 0 0 Z M-12.4765625 25.1953125 C-8.70968386 27.07875182 -7.44697287 27.41589085 -3.4765625 27.1953125 C-3.4765625 26.5353125 -3.4765625 25.8753125 -3.4765625 25.1953125 C-6.4465625 25.1953125 -9.4165625 25.1953125 -12.4765625 25.1953125 Z M-12.4765625 32.1953125 C-12.4765625 32.5253125 -12.4765625 32.8553125 -12.4765625 33.1953125 C-9.5065625 33.1953125 -6.5365625 33.1953125 -3.4765625 33.1953125 C-3.4765625 32.8653125 -3.4765625 32.5353125 -3.4765625 32.1953125 C-6.4465625 32.1953125 -9.4165625 32.1953125 -12.4765625 32.1953125 Z M-28.4765625 43.1953125 C-28.4765625 44.5153125 -28.4765625 45.8353125 -28.4765625 47.1953125 C-24.5165625 47.1953125 -20.5565625 47.1953125 -16.4765625 47.1953125 C-16.4765625 45.8753125 -16.4765625 44.5553125 -16.4765625 43.1953125 C-20.4365625 43.1953125 -24.3965625 43.1953125 -28.4765625 43.1953125 Z " fill="#198EC7" transform="translate(115.4765625,70.8046875)"/>
<path d="M0 0 C4.5416125 -0.05823729 9.0831284 -0.09367675 13.625 -0.125 C14.91019531 -0.14175781 16.19539063 -0.15851563 17.51953125 -0.17578125 C18.76347656 -0.18222656 20.00742188 -0.18867187 21.2890625 -0.1953125 C22.43068848 -0.20578613 23.57231445 -0.21625977 24.74853516 -0.22705078 C29.02016675 0.07123855 32.64235704 0.77812134 35.875 3.6875 C37.51756835 7.06389049 37.51220593 9.28650701 37 13 C34.97632105 16.47359452 32.88983176 18.70338941 29 20 C27.08093083 20.08266486 25.15910526 20.10740663 23.23828125 20.09765625 C22.12001953 20.09443359 21.00175781 20.09121094 19.84960938 20.08789062 C18.68236328 20.07951172 17.51511719 20.07113281 16.3125 20.0625 C15.13365234 20.05798828 13.95480469 20.05347656 12.74023438 20.04882812 C9.82677211 20.03703273 6.91341137 20.0205727 4 20 C4.61875 19.71125 5.2375 19.4225 5.875 19.125 C8.13325765 18.06279958 8.13325765 18.06279958 10 16 C11.84765625 15.58935547 11.84765625 15.58935547 14.0625 15.3671875 C14.85914063 15.28339844 15.65578125 15.19960937 16.4765625 15.11328125 C17.30929688 15.03464844 18.14203125 14.95601562 19 14.875 C19.83273438 14.78863281 20.66546875 14.70226562 21.5234375 14.61328125 C27.53943452 14 27.53943452 14 30 14 C30 13.34 30 12.68 30 12 C30.66 12 31.32 12 32 12 C30.88145414 8.27385847 30.88145414 8.27385847 28 6 C28 5.34 28 4.68 28 4 C26.09927734 4.05220703 26.09927734 4.05220703 24.16015625 4.10546875 C22.46095089 4.13363237 20.76173102 4.16092975 19.0625 4.1875 C17.81629883 4.22520508 17.81629883 4.22520508 16.54492188 4.26367188 C10.49797101 4.33425885 5.60483651 3.25464398 0 1 C0 0.67 0 0.34 0 0 Z " fill="#212C7B" transform="translate(127,91)"/>
<path d="M0 0 C9.57 0.33 19.14 0.66 29 1 C28.67 1.99 28.34 2.98 28 4 C33.445 3.01 33.445 3.01 39 2 C38 4 38 4 35.27734375 5.1171875 C29.49837541 6.62654238 23.48617765 6.2090238 17.5625 6.125 C16.35400391 6.11597656 15.14550781 6.10695312 13.90039062 6.09765625 C10.93338722 6.07420168 7.96679857 6.04137794 5 6 C5.05220703 7.86205078 5.05220703 7.86205078 5.10546875 9.76171875 C5.13361584 11.40363226 5.16091501 13.04556046 5.1875 14.6875 C5.21263672 15.50412109 5.23777344 16.32074219 5.26367188 17.16210938 C5.30705132 20.73368402 5.11324222 23.63007543 4.0625 27.0625 C1.22001662 29.73271166 -0.86348501 29.51573072 -4.66210938 29.43945312 C-5.91217773 29.37661133 -5.91217773 29.37661133 -7.1875 29.3125 C-8.03248047 29.28994141 -8.87746094 29.26738281 -9.74804688 29.24414062 C-11.83278798 29.18524963 -13.91661804 29.09556798 -16 29 C-16.33 28.01 -16.66 27.02 -17 26 C-8.585 25.505 -8.585 25.505 0 25 C0 16.75 0 8.5 0 0 Z " fill="#0B1A6A" transform="translate(130,128)"/>
<path d="M0 0 C2.328125 0.23046875 2.328125 0.23046875 5 1 C6.546875 2.92578125 6.546875 2.92578125 7.75 5.3125 C8.15734375 6.09238281 8.5646875 6.87226562 8.984375 7.67578125 C11.09937603 12.51587975 11.12250227 17.02518697 11.0625 22.25 C11.05798828 22.99507812 11.05347656 23.74015625 11.04882812 24.5078125 C11.03709246 26.3385764 11.0191585 28.16929873 11 30 C10.34 30 9.68 30 9 30 C8.91363281 30.59167969 8.82726562 31.18335937 8.73828125 31.79296875 C7.74317447 37.38930323 6.58511335 40.33190932 2 44 C1.42507812 44.46535156 0.85015625 44.93070313 0.2578125 45.41015625 C-4.40198468 49 -4.40198468 49 -9 49 C-9 47.68 -9 46.36 -9 45 C-8.21625 44.7525 -7.4325 44.505 -6.625 44.25 C-3.51315308 42.76816813 -3.42754259 41.9967497 -2 39 C-1.017588 37.7773242 -0.0165487 36.56944472 1 35.375 C5.30656857 29.69959546 6.33930093 23.59401628 5.9375 16.5625 C5.24473084 11.72177552 3.19610205 7.5472903 1.05859375 3.1875 C0 1 0 1 0 0 Z " fill="#2A1969" transform="translate(176,80)"/>
<path d="M0 0 C0.33 0 0.66 0 1 0 C1 11.88 1 23.76 1 36 C1.66 36 2.32 36 3 36 C3.99 39.3 4.98 42.6 6 46 C4.68 46.66 3.36 47.32 2 48 C1.67 48.99 1.34 49.98 1 51 C-0.65 51 -2.3 51 -4 51 C-4 50.34 -4 49.68 -4 49 C-4.61875 48.731875 -5.2375 48.46375 -5.875 48.1875 C-8 47 -8 47 -10 44 C-9.64477539 42.26074219 -9.64477539 42.26074219 -9 40 C-8.85139192 37.61166853 -8.75221573 35.22009126 -8.68359375 32.828125 C-8.6524221 31.8044986 -8.6524221 31.8044986 -8.62062073 30.76019287 C-8.55547948 28.59022644 -8.49640596 26.42014376 -8.4375 24.25 C-8.39428103 22.77472779 -8.35066568 21.29946713 -8.30664062 19.82421875 C-8.19983482 16.21626834 -8.09846847 12.60818867 -8 9 C-6.16684492 12.15174031 -5.71247748 14.57564571 -5.5859375 18.203125 C-5.54726562 19.1828125 -5.50859375 20.1625 -5.46875 21.171875 C-5.4378125 22.18765625 -5.406875 23.2034375 -5.375 24.25 C-5.33632812 25.28125 -5.29765625 26.3125 -5.2578125 27.375 C-5.16368326 29.9164894 -5.07805021 32.45797433 -5 35 C-3.02 34.505 -3.02 34.505 -1 34 C-0.67 22.78 -0.34 11.56 0 0 Z " fill="#42B6E4" transform="translate(94,138)"/>
<path d="M0 0 C0.66 0.66 1.32 1.32 2 2 C2.66 2 3.32 2 4 2 C4 4.125 4 4.125 3 7 C-2.13533043 11.80629324 -7.51202855 14.91472344 -14.4375 16.125 C-15.36433594 16.29257813 -16.29117188 16.46015625 -17.24609375 16.6328125 C-19.87053825 16.98273843 -22.35642353 17.06716891 -25 17 C-24.01 16.67 -23.02 16.34 -22 16 C-22 15.34 -22 14.68 -22 14 C-21.34 13.34 -20.68 12.68 -20 12 C-19.34 11.01 -18.68 10.02 -18 9 C-14.875 7.8125 -14.875 7.8125 -12 7 C-16.455 7.495 -16.455 7.495 -21 8 C-21 7.34 -21 6.68 -21 6 C-33.87 5.505 -33.87 5.505 -47 5 C-47 4.67 -47 4.34 -47 4 C-45.73724243 3.96241577 -45.73724243 3.96241577 -44.44897461 3.92407227 C-41.29733856 3.82839721 -38.14583774 3.72919924 -34.99438477 3.62768555 C-33.6357042 3.58462706 -32.27697959 3.54293435 -30.91821289 3.50268555 C-28.95447697 3.44427107 -26.99090636 3.38038197 -25.02734375 3.31640625 C-23.84906006 3.27974854 -22.67077637 3.24309082 -21.45678711 3.20532227 C-17.92711235 2.9956707 -14.49181389 2.5478502 -11 2 C-11.33 2.99 -11.66 3.98 -12 5 C-10.55989519 4.74337755 -9.1229313 4.46909179 -7.6875 4.1875 C-6.88699219 4.03667969 -6.08648437 3.88585937 -5.26171875 3.73046875 C-2.76554413 2.92427764 -1.67577894 1.97947998 0 0 Z " fill="#1B2D9A" transform="translate(179,124)"/>
<path d="M0 0 C0.66 0.99 1.32 1.98 2 3 C1.67 3.33 1.34 3.66 1 4 C0.89931538 6.42827613 0.8612824 8.82198411 0.875 11.25 C0.87113281 11.91902344 0.86726563 12.58804688 0.86328125 13.27734375 C0.87055177 16.9780363 1.12156499 20.40259947 2 24 C0.35 24.33 -1.3 24.66 -3 25 C-3 43.81 -3 62.62 -3 82 C-3.33 82 -3.66 82 -4 82 C-4 59.56 -4 37.12 -4 14 C-7.3 14 -10.6 14 -14 14 C-15 13 -15 13 -15.125 10 C-15 7 -15 7 -14 6 C-11.81360547 5.92741054 -9.62499611 5.91626217 -7.4375 5.9375 C-5.64119141 5.95103516 -5.64119141 5.95103516 -3.80859375 5.96484375 C-2.88175781 5.97644531 -1.95492187 5.98804687 -1 6 C-0.67 4.02 -0.34 2.04 0 0 Z " fill="#219FD8" transform="translate(85,106)"/>
<path d="M0 0 C2.97 0 5.94 0 9 0 C9.66 1.98 10.32 3.96 11 6 C11.66 4.35 12.32 2.7 13 1 C20.59 1 28.18 1 36 1 C36 1.33 36 1.66 36 2 C29.73 2.33 23.46 2.66 17 3 C15.7216252 5.95479979 15.7216252 5.95479979 16.6875 8.875 C17 12 17 12 15.0625 14.875 C14.381875 15.57625 13.70125 16.2775 13 17 C13.33 17.66 13.66 18.32 14 19 C13.34 19.99 12.68 20.98 12 22 C8.375 22.1875 8.375 22.1875 5 22 C5 24.31 5 26.62 5 29 C4.67 29 4.34 29 4 29 C4 26.36 4 23.72 4 21 C6.31 21 8.62 21 11 21 C11 19.68 11 18.36 11 17 C9.02 16.67 7.04 16.34 5 16 C5.33 15.01 5.66 14.02 6 13 C8.64 13 11.28 13 14 13 C14 12.01 14 11.02 14 10 C13.00097656 10.01160156 12.00195312 10.02320312 10.97265625 10.03515625 C9.68230469 10.04417969 8.39195313 10.05320312 7.0625 10.0625 C5.77472656 10.07410156 4.48695312 10.08570312 3.16015625 10.09765625 C0 10 0 10 -1 9 C-1.23728814 2.47457627 -1.23728814 2.47457627 0 0 Z " fill="#5BDBE8" transform="translate(76,60)"/>
<path d="M0 0 C0.33 0 0.66 0 1 0 C1.02505615 1.28165039 1.0501123 2.56330078 1.07592773 3.88378906 C1.17011595 8.6399125 1.2703089 13.39589379 1.37231445 18.15185547 C1.41562009 20.21008987 1.45729829 22.26835918 1.49731445 24.32666016 C1.55512275 27.28558879 1.61878696 30.2443424 1.68359375 33.203125 C1.70030624 34.12305237 1.71701874 35.04297974 1.73423767 35.99078369 C1.75418289 36.8513739 1.77412811 37.71196411 1.79467773 38.59863281 C1.81022202 39.35364075 1.8257663 40.10864868 1.84178162 40.88653564 C2.00185633 43.02479671 2.41816368 44.93989084 3 47 C1.125 46.75 1.125 46.75 -1 46 C-3.5381324 42.40820758 -3.39718127 38.40213892 -3.51953125 34.1640625 C-3.54601242 33.40709076 -3.57249359 32.65011902 -3.59977722 31.87020874 C-3.65235291 30.27169791 -3.69995705 28.67301682 -3.74291992 27.07421875 C-3.81208485 24.63961329 -3.9081114 22.20704195 -4.00585938 19.7734375 C-4.05372874 18.21619554 -4.10000479 16.65890363 -4.14453125 15.1015625 C-4.17561478 14.37949615 -4.2066983 13.65742981 -4.23872375 12.91348267 C-4.3340706 8.16159658 -3.46273948 5.05231531 -1 1 C-0.67 0.67 -0.34 0.34 0 0 Z " fill="#0B4EA1" transform="translate(110,111)"/>
<path d="M0 0 C4.62 0 9.24 0 14 0 C13.34 1.65 12.68 3.3 12 5 C12.66 5 13.32 5 14 5 C14.33 4.01 14.66 3.02 15 2 C16.36884358 6.51718381 15.47075246 9.58774263 14 14 C11.68756208 14.02685412 9.3750373 14.04632841 7.0625 14.0625 C5.77472656 14.07410156 4.48695312 14.08570312 3.16015625 14.09765625 C0 14 0 14 -1 13 C-1.15775038 8.26748847 -0.94043148 4.70215739 0 0 Z M1 9 C1 10.32 1 11.64 1 13 C4.96 13 8.92 13 13 13 C13 11.68 13 10.36 13 9 C9.04 9 5.08 9 1 9 Z " fill="#2789C3" transform="translate(86,105)"/>
<path d="M0 0 C0 0.66 0 1.32 0 2 C1.051875 2.0825 2.10375 2.165 3.1875 2.25 C7.27047209 3.05320762 9.0122727 4.19334709 12 7 C10.86755859 6.84152588 9.73511719 6.68305176 8.56835938 6.51977539 C4.01209579 5.95211817 -0.50651017 5.78064771 -5.09375 5.68359375 C-6.34194519 5.6524221 -6.34194519 5.6524221 -7.61535645 5.62062073 C-10.24349636 5.55583806 -12.87172625 5.49657588 -15.5 5.4375 C-17.29427971 5.39424678 -19.0885507 5.35063046 -20.8828125 5.30664062 C-25.25511885 5.20023106 -29.62751463 5.09876837 -34 5 C-29.28383865 -0.1438862 -22.08472887 0.74983939 -15.5 0.4375 C-14.67113281 0.39431641 -13.84226563 0.35113281 -12.98828125 0.30664062 C-8.65398362 0.0895812 -4.34129681 -0.04933292 0 0 Z " fill="#2640A3" transform="translate(161,67)"/>
<path d="M0 0 C4.5416125 -0.05823729 9.0831284 -0.09367675 13.625 -0.125 C14.91019531 -0.14175781 16.19539063 -0.15851563 17.51953125 -0.17578125 C18.76347656 -0.18222656 20.00742188 -0.18867187 21.2890625 -0.1953125 C22.43068848 -0.20578613 23.57231445 -0.21625977 24.74853516 -0.22705078 C28.1675561 0.01170049 30.83884298 0.69195496 34 2 C35.4375 3.875 35.4375 3.875 36 6 C35.6875 8 35.6875 8 35 10 C34.7215625 11.11375 34.7215625 11.11375 34.4375 12.25 C34.293125 12.8275 34.14875 13.405 34 14 C33.67 14 33.34 14 33 14 C32.505 10.535 32.505 10.535 32 7 C30.68 6.67 29.36 6.34 28 6 C28 5.34 28 4.68 28 4 C26.09927734 4.05220703 26.09927734 4.05220703 24.16015625 4.10546875 C22.46095089 4.13363237 20.76173102 4.16092975 19.0625 4.1875 C17.81629883 4.22520508 17.81629883 4.22520508 16.54492188 4.26367188 C10.49797101 4.33425885 5.60483651 3.25464398 0 1 C0 0.67 0 0.34 0 0 Z " fill="#121869" transform="translate(127,91)"/>
<path d="M0 0 C2.31 0 4.62 0 7 0 C7.09765625 6.15234375 7.09765625 6.15234375 7 8 C6.67 8.33 6.34 8.66 6 9 C5.86722641 11.22764582 5.76906091 13.45739181 5.6875 15.6875 C5.20362689 23.01259452 4.30841027 26.06969376 -1.1875 30.9375 C-5.29685265 32.48992211 -8.81188977 32.27991072 -13 31 C-16.0625 28.4375 -16.0625 28.4375 -18 26 C-17.34 25.67 -16.68 25.34 -16 25 C-15.484375 25.474375 -14.96875 25.94875 -14.4375 26.4375 C-10.56211308 28.92172239 -6.52043704 29 -2 29 C-1.71125 28.21625 -1.4225 27.4325 -1.125 26.625 C0 24 0 24 2 22 C2.3063859 19.26565038 2.5113336 16.61720179 2.625 13.875 C2.66367188 13.12089844 2.70234375 12.36679688 2.7421875 11.58984375 C2.83651031 9.72696816 2.91934662 7.86351745 3 6 C2.34 6 1.68 6 1 6 C0.67 4.02 0.34 2.04 0 0 Z " fill="#49A8D0" transform="translate(100,164)"/>
<path d="M0 0 C6.06891692 -0.0493933 12.13771713 -0.08571643 18.20678711 -0.10986328 C20.271912 -0.11992835 22.33702263 -0.13358154 24.40209961 -0.15087891 C27.36836264 -0.17510493 30.33443744 -0.18647797 33.30078125 -0.1953125 C34.2258699 -0.20563507 35.15095856 -0.21595764 36.1040802 -0.22659302 C36.96474594 -0.22674408 37.82541168 -0.22689514 38.7121582 -0.22705078 C39.46938675 -0.231492 40.2266153 -0.23593323 41.00679016 -0.24050903 C43 0 43 0 46 2 C36.43 2 26.86 2 17 2 C22.41698271 3.83161932 22.41698271 3.83161932 27.7421875 4.4140625 C28.99902344 4.47207031 28.99902344 4.47207031 30.28125 4.53125 C31.1371875 4.5621875 31.993125 4.593125 32.875 4.625 C33.75414062 4.66367188 34.63328125 4.70234375 35.5390625 4.7421875 C37.69238793 4.83581034 39.84616414 4.91896459 42 5 C42 5.33 42 5.66 42 6 C38.0625162 6.02946879 34.12506144 6.04695407 30.1875 6.0625 C28.53717773 6.07506836 28.53717773 6.07506836 26.85351562 6.08789062 C6.67194182 6.14742329 6.67194182 6.14742329 0 2 C0 1.34 0 0.68 0 0 Z " fill="#1A4183" transform="translate(113,90)"/>
<path d="M0 0 C-1.04708705 7.9279448 -2.49266613 11.29934781 -8.74609375 16.43359375 C-13.44405099 20 -13.44405099 20 -18 20 C-18 18.68 -18 17.36 -18 16 C-17.21625 15.7525 -16.4325 15.505 -15.625 15.25 C-12.50970122 13.76652439 -12.41061926 13.01580669 -11 10 C-10.0533386 8.60242189 -9.0728389 7.22726021 -8.0625 5.875 C-7.30646484 4.85019531 -7.30646484 4.85019531 -6.53515625 3.8046875 C-4.61412908 1.54638075 -3.07826092 0 0 0 Z " fill="#150D5D" transform="translate(185,109)"/>
<path d="M0 0 C0.66 0.33 1.32 0.66 2 1 C2.02688151 2.64574566 2.04634123 4.29161413 2.0625 5.9375 C2.07410156 6.85402344 2.08570312 7.77054687 2.09765625 8.71484375 C2 11 2 11 1 12 C-5.52542373 12.23728814 -5.52542373 12.23728814 -8 11 C-8 7.7 -8 4.4 -8 1 C-5.26094655 -0.36952673 -3.02912668 -0.12621361 0 0 Z " fill="#48D2E5" transform="translate(71,70)"/>
<path d="M0 0 C1.38294718 0.01329757 2.76582404 0.03715018 4.1484375 0.0703125 C4.85484375 0.07933594 5.56125 0.08835937 6.2890625 0.09765625 C8.03399848 0.12123647 9.77876045 0.15710789 11.5234375 0.1953125 C11.5234375 0.5253125 11.5234375 0.8553125 11.5234375 1.1953125 C6.9034375 1.5253125 2.2834375 1.8553125 -2.4765625 2.1953125 C-2.53714844 3.32710938 -2.59773438 4.45890625 -2.66015625 5.625 C-2.74456167 7.10678395 -2.82920967 8.5885541 -2.9140625 10.0703125 C-2.95337891 10.81667969 -2.99269531 11.56304687 -3.03320312 12.33203125 C-3.36328125 17.96875 -3.36328125 17.96875 -4.4765625 20.1953125 C-4.4765625 21.5153125 -4.4765625 22.8353125 -4.4765625 24.1953125 C-3.4865625 24.5253125 -2.4965625 24.8553125 -1.4765625 25.1953125 C-1.4765625 26.1853125 -1.4765625 27.1753125 -1.4765625 28.1953125 C-5.4365625 28.1953125 -9.3965625 28.1953125 -13.4765625 28.1953125 C-13.1465625 26.8753125 -12.8165625 25.5553125 -12.4765625 24.1953125 C-10.1665625 24.1953125 -7.8565625 24.1953125 -5.4765625 24.1953125 C-5.96769531 23.36773437 -5.96769531 23.36773437 -6.46875 22.5234375 C-7.64443965 19.80750327 -7.67904888 17.88979491 -7.6015625 14.9453125 C-7.58351563 14.05328125 -7.56546875 13.16125 -7.546875 12.2421875 C-7.51207031 11.22898437 -7.51207031 11.22898437 -7.4765625 10.1953125 C-6.8165625 10.1953125 -6.1565625 10.1953125 -5.4765625 10.1953125 C-5.5178125 8.9165625 -5.5590625 7.6378125 -5.6015625 6.3203125 C-5.671875 4.140625 -5.671875 4.140625 -5.4765625 2.1953125 C-3.4765625 0.1953125 -3.4765625 0.1953125 0 0 Z M-12.4765625 25.1953125 C-8.70968386 27.07875182 -7.44697287 27.41589085 -3.4765625 27.1953125 C-3.4765625 26.5353125 -3.4765625 25.8753125 -3.4765625 25.1953125 C-6.4465625 25.1953125 -9.4165625 25.1953125 -12.4765625 25.1953125 Z " fill="#3B92BA" transform="translate(115.4765625,70.8046875)"/>
<path d="M0 0 C27.37042646 -1.03194763 27.37042646 -1.03194763 37 5 C32.61730916 6.46089695 29.64991236 5.99898035 25.4375 4.5 C20.55896842 2.94642 16.24233211 2.77802249 11.15234375 2.9921875 C10.08693359 2.99605469 10.08693359 2.99605469 9 3 C8.67 2.67 8.34 2.34 8 2 C6.65252916 1.76924918 5.29622435 1.58846937 3.9375 1.4375 C2.638125 1.293125 1.33875 1.14875 0 1 C0 0.67 0 0.34 0 0 Z " fill="#4656AE" transform="translate(139,61)"/>
<path d="M0 0 C1.32 0 2.64 0 4 0 C4.125 7.625 4.125 7.625 3 11 C2.88356421 12.88591396 2.82336539 14.77550782 2.79467773 16.66479492 C2.77473251 17.82577194 2.75478729 18.98674896 2.73423767 20.1829071 C2.71752518 21.43610245 2.70081268 22.68929779 2.68359375 23.98046875 C2.66281265 25.26359451 2.64203156 26.54672028 2.62062073 27.86872864 C2.56548094 31.27662815 2.51603611 34.68458741 2.46777344 38.09259033 C2.41749921 41.57154648 2.36184409 45.05041607 2.30664062 48.52929688 C2.19915811 55.35278951 2.09769123 62.17636036 2 69 C1.67 69 1.34 69 1 69 C0.67 46.23 0.34 23.46 0 0 Z " fill="#4A9DCB" transform="translate(80,119)"/>
<path d="M0 0 C-1.93254772 2.0245738 -3.63158688 3.42105792 -6 5 C-8.03123075 7.03123075 -7.25669618 11.17768866 -7.31640625 13.97265625 C-7.33718735 14.77029892 -7.35796844 15.56794159 -7.37937927 16.38975525 C-7.44496158 18.94724611 -7.50379967 21.5048428 -7.5625 24.0625 C-7.60567699 25.79232882 -7.64929101 27.52214679 -7.69335938 29.25195312 C-7.80065172 33.5011926 -7.90189426 37.7505389 -8 42 C-8.33 42 -8.66 42 -9 42 C-9.33 30.12 -9.66 18.24 -10 6 C-11.485 8.475 -11.485 8.475 -13 11 C-14 9 -14 9 -13.3125 5.5 C-12 2 -12 2 -10.375 0.5625 C-6.86570564 -0.26864866 -3.60331819 -0.12011061 0 0 Z " fill="#2E72AD" transform="translate(120,106)"/>
<path d="M0 0 C0.33 0 0.66 0 1 0 C1.02898816 3.93748458 1.04679464 7.87494179 1.0625 11.8125 C1.07087891 12.93205078 1.07925781 14.05160156 1.08789062 15.20507812 C1.09111328 16.27822266 1.09433594 17.35136719 1.09765625 18.45703125 C1.10289307 19.44678955 1.10812988 20.43654785 1.11352539 21.45629883 C1 24 1 24 0 27 C0.99 27.33 1.98 27.66 3 28 C3 28.66 3 29.32 3 30 C5.64 30 8.28 30 11 30 C11 28.68 11 27.36 11 26 C9.68 25.67 8.36 25.34 7 25 C8.32 25 9.64 25 11 25 C11.33 23.68 11.66 22.36 12 21 C12.66 23.64 13.32 26.28 14 29 C13.360625 29.268125 12.72125 29.53625 12.0625 29.8125 C9.66868314 30.88667752 9.66868314 30.88667752 9 34 C7.35 34 5.7 34 4 34 C4 33.34 4 32.68 4 32 C3.38125 31.731875 2.7625 31.46375 2.125 31.1875 C0 30 0 30 -2 27 C-1.64477539 25.15136719 -1.64477539 25.15136719 -1 23 C-0.85557049 21.19540394 -0.75394371 19.38712409 -0.68359375 17.578125 C-0.64169922 16.55332031 -0.59980469 15.52851563 -0.55664062 14.47265625 C-0.49766602 12.87744141 -0.49766602 12.87744141 -0.4375 11.25 C-0.39431641 10.17105469 -0.35113281 9.09210938 -0.30664062 7.98046875 C-0.20071011 5.32043572 -0.09863579 2.66031188 0 0 Z " fill="#3ED7F6" transform="translate(86,155)"/>
<path d="M0 0 C0.33 0 0.66 0 1 0 C1 11.22 1 22.44 1 34 C0.01 33.34 -0.98 32.68 -2 32 C-2.37231445 29.69677734 -2.37231445 29.69677734 -2.36328125 26.8359375 C-2.36263672 25.79566406 -2.36199219 24.75539062 -2.36132812 23.68359375 C-2.34521484 22.59175781 -2.32910156 21.49992187 -2.3125 20.375 C-2.31572266 19.30636719 -2.31894531 18.23773438 -2.32226562 17.13671875 C-2.28131628 11.08366159 -1.76104735 5.79531916 0 0 Z " fill="#104B94" transform="translate(110,113)"/>
<path d="M0 0 C0.33 0 0.66 0 1 0 C1.02905924 3.7499837 1.04681874 7.49993837 1.0625 11.25 C1.07087891 12.31347656 1.07925781 13.37695312 1.08789062 14.47265625 C1.09111328 15.49746094 1.09433594 16.52226562 1.09765625 17.578125 C1.10289307 18.52075195 1.10812988 19.46337891 1.11352539 20.43457031 C1 23 1 23 0.43139648 25.21386719 C-0.22445388 27.08834458 -0.22445388 27.08834458 1 29 C0.34 29.33 -0.32 29.66 -1 30 C-1 31.32 -1 32.64 -1 34 C-1.66 34 -2.32 34 -3 34 C-3.09908936 24.60853097 -3.12998844 15.34258296 -2 6 C-1.67 6 -1.34 6 -1 6 C-0.67 4.02 -0.34 2.04 0 0 Z " fill="#1CA6E0" transform="translate(85,155)"/>
<path d="M0 0 C0.33 1.32 0.66 2.64 1 4 C1.66 4 2.32 4 3 4 C3.61106729 19.91038165 3.61106729 19.91038165 0 27 C-0.66 27.66 -1.32 28.32 -2 29 C-2 29.66 -2 30.32 -2 31 C-2.99 31.33 -3.98 31.66 -5 32 C-3.14130435 25.36180124 -3.14130435 25.36180124 -1.93359375 22.26953125 C-0.82529218 18.38815712 -0.81610596 14.80378882 -0.9375 10.8125 C-1.11993243 3.3597973 -1.11993243 3.3597973 0 0 Z " fill="#2C1176" transform="translate(191,89)"/>
<path d="M0 0 C0.99 0 1.98 0 3 0 C2.00910012 2.70245422 1.40987259 3.79084878 -1.19604492 5.12060547 C-4.34482685 6.10814683 -6.87947506 6.22778842 -10.17578125 6.1953125 C-11.33271484 6.18886719 -12.48964844 6.18242187 -13.68164062 6.17578125 C-15.47891602 6.15064453 -15.47891602 6.15064453 -17.3125 6.125 C-18.53001953 6.11597656 -19.74753906 6.10695312 -21.00195312 6.09765625 C-24.00150274 6.07413037 -27.00065044 6.04125653 -30 6 C-30 5.34 -30 4.68 -30 4 C-15.15 3.505 -15.15 3.505 0 3 C0 2.01 0 1.02 0 0 Z " fill="#3E77B3" transform="translate(137,159)"/>
<path d="M0 0 C-0.33 0.66 -0.66 1.32 -1 2 C0.32 2.33 1.64 2.66 3 3 C-1.29 3.66 -5.58 4.32 -10 5 C-10 4.34 -10 3.68 -10 3 C-22.87 2.505 -22.87 2.505 -36 2 C-36 1.67 -36 1.34 -36 1 C-34.70582153 0.96241577 -34.70582153 0.96241577 -33.38549805 0.92407227 C-30.18176231 0.82888615 -26.97818463 0.72965556 -23.7746582 0.62768555 C-22.38864017 0.58439782 -21.00257094 0.54271836 -19.61645508 0.50268555 C-17.62308202 0.44483416 -15.62989435 0.38070224 -13.63671875 0.31640625 C-12.43748779 0.27974854 -11.23825684 0.24309082 -10.00268555 0.20532227 C-1.26386586 -0.39223423 -1.26386586 -0.39223423 0 0 Z " fill="#23306E" transform="translate(168,127)"/>
<path d="M0 0 C2.64 0 5.28 0 8 0 C8.38063221 2.3260857 8.71269945 4.66055264 9 7 C8 8 8 8 6.15234375 8.09765625 C4.1015625 8.06510417 2.05078125 8.03255208 0 8 C0 5.36 0 2.72 0 0 Z " fill="#55CBDD" transform="translate(70,86)"/>
<path d="M0 0 C6.15234375 -0.09765625 6.15234375 -0.09765625 8 0 C9 1 9 1 9.125 4 C9 7 9 7 8 8 C5.66702567 8.04092937 3.33294775 8.04241723 1 8 C-0.35439668 5.29120665 -0.06501451 2.99066732 0 0 Z " fill="#1CA9DE" transform="translate(73,97)"/>
<path d="M0 0 C0.99 0.33 1.98 0.66 3 1 C1.92598892 3.91517292 1.22189824 5.77810176 -1 8 C-0.67 8.66 -0.34 9.32 0 10 C-0.99 11.485 -0.99 11.485 -2 13 C-5.625 13.1875 -5.625 13.1875 -9 13 C-9 15.31 -9 17.62 -9 20 C-9.33 20 -9.66 20 -10 20 C-10 17.36 -10 14.72 -10 12 C-7.69 12 -5.38 12 -3 12 C-3 10.68 -3 9.36 -3 8 C-5.97 7.505 -5.97 7.505 -9 7 C-8.67 6.01 -8.34 5.02 -8 4 C-5.36 4 -2.72 4 0 4 C0 2.68 0 1.36 0 0 Z " fill="#40CFE2" transform="translate(90,69)"/>
<path d="M0 0 C0 0.66 0 1.32 0 2 C-1.25296875 2.04898438 -2.5059375 2.09796875 -3.796875 2.1484375 C-5.44793821 2.22348583 -7.09897881 2.29903277 -8.75 2.375 C-9.9875 2.42140625 -9.9875 2.42140625 -11.25 2.46875 C-12.04921875 2.50742188 -12.8484375 2.54609375 -13.671875 2.5859375 C-14.77160645 2.63306885 -14.77160645 2.63306885 -15.89355469 2.68115234 C-18.25517808 3.0386257 -19.88808132 3.91393184 -22 5 C-25.015625 5.1953125 -25.015625 5.1953125 -28.25 5.125 C-29.32765625 5.10695313 -30.4053125 5.08890625 -31.515625 5.0703125 C-32.33546875 5.04710938 -33.1553125 5.02390625 -34 5 C-32.25453726 2.7696865 -31.18644234 2.04689137 -28.40625 1.34765625 C-24.10671351 0.90882741 -19.81639185 0.64224331 -15.5 0.4375 C-14.67113281 0.39431641 -13.84226563 0.35113281 -12.98828125 0.30664062 C-8.65398362 0.0895812 -4.34129681 -0.04933292 0 0 Z " fill="#235DB7" transform="translate(161,67)"/>
<path d="M0 0 C0 0.33 0 0.66 0 1 C-1.3303125 1.433125 -1.3303125 1.433125 -2.6875 1.875 C-5.85579741 2.87359077 -5.85579741 2.87359077 -8.1640625 4.0546875 C-12.04618321 5.34872774 -15.62443628 5.29135434 -19.6875 5.25 C-20.84475586 5.26160156 -20.84475586 5.26160156 -22.02539062 5.2734375 C-27.74654908 5.25345092 -27.74654908 5.25345092 -30 3 C-29.09121094 3.05220703 -29.09121094 3.05220703 -28.1640625 3.10546875 C-23.43325727 3.25831015 -19.50327648 3.02253633 -15 1.5 C-9.92327503 -0.21641654 -5.3145659 -0.30530485 0 0 Z " fill="#1A4891" transform="translate(142,106)"/>
<path d="M0 0 C0.66 0 1.32 0 2 0 C2.05784708 4.12494151 2.09354407 8.24977944 2.125 12.375 C2.15013672 14.1384375 2.15013672 14.1384375 2.17578125 15.9375 C2.18222656 17.05898437 2.18867187 18.18046875 2.1953125 19.3359375 C2.20578613 20.37282715 2.21625977 21.4097168 2.22705078 22.47802734 C2 25 2 25 0 27 C0 21.39 0 15.78 0 10 C-0.99 10 -1.98 10 -3 10 C-3.33 8.35 -3.66 6.7 -4 5 C-2.68 5 -1.36 5 0 5 C0 3.35 0 1.7 0 0 Z " fill="#1166B1" transform="translate(95,128)"/>
<path d="M0 0 C6.46746507 -0.36608293 13.10617701 0.09277755 19 3 C20.4453125 5.42578125 20.4453125 5.42578125 21 8 C20.01 9.485 20.01 9.485 19 11 C18.36384766 10.40251953 18.36384766 10.40251953 17.71484375 9.79296875 C12.31136267 4.9120221 7.33023769 2.11064207 0 1 C0 0.67 0 0.34 0 0 Z " fill="#414596" transform="translate(157,72)"/>
<path d="M0 0 C0.33 0.99 0.66 1.98 1 3 C-1 5 -1 5 -2.87939453 5.22705078 C-3.62302246 5.21657715 -4.36665039 5.20610352 -5.1328125 5.1953125 C-5.93847656 5.18886719 -6.74414062 5.18242187 -7.57421875 5.17578125 C-8.41597656 5.15902344 -9.25773437 5.14226562 -10.125 5.125 C-11.39923828 5.11146484 -11.39923828 5.11146484 -12.69921875 5.09765625 C-14.79959884 5.07405647 -16.89983444 5.03818483 -19 5 C-19.33 4.01 -19.66 3.02 -20 2 C-13.4 2 -6.8 2 0 2 C0 1.34 0 0.68 0 0 Z " fill="#052779" transform="translate(133,152)"/>
<path d="M0 0 C1.5619389 4.45101542 0.0913411 7.20372315 -1.67578125 11.3828125 C-3.65615071 15.29681704 -6.19015232 18.6469151 -9 22 C-9.66 21.34 -10.32 20.68 -11 20 C-11.66 20.33 -12.32 20.66 -13 21 C-12.505 19.515 -12.505 19.515 -12 18 C-11.34 18 -10.68 18 -10 18 C-9.34 16.35 -8.68 14.7 -8 13 C-6.68 13 -5.36 13 -4 13 C-4.33 12.01 -4.66 11.02 -5 10 C-4.01 9.67 -3.02 9.34 -2 9 C-1.19436362 6.89415562 -1.19436362 6.89415562 -0.8125 4.4375 C-0.57466797 3.19806641 -0.57466797 3.19806641 -0.33203125 1.93359375 C-0.22246094 1.29550781 -0.11289063 0.65742187 0 0 Z " fill="#2C227C" transform="translate(193,107)"/>
<path d="M0 0 C2.31 0 4.62 0 7 0 C7.09765625 6.15234375 7.09765625 6.15234375 7 8 C6.67 8.33 6.34 8.66 6 9 C5.76807135 10.51469448 5.58784762 12.03754562 5.4375 13.5625 C5.35371094 14.38878906 5.26992187 15.21507812 5.18359375 16.06640625 C5.12300781 16.70449219 5.06242187 17.34257812 5 18 C4.67 18 4.34 18 4 18 C4 14.04 4 10.08 4 6 C3.01 6 2.02 6 1 6 C0.67 4.02 0.34 2.04 0 0 Z " fill="#6BD5EF" transform="translate(100,164)"/>
<path d="M0 0 C0.33 0 0.66 0 1 0 C1.0543965 2.37531394 1.09385864 4.74935883 1.125 7.125 C1.14175781 7.79015625 1.15851563 8.4553125 1.17578125 9.140625 C1.21834519 13.48214668 0.75008227 17.0137015 -1 21 C-3.125 21.875 -3.125 21.875 -5 22 C-4.84660156 21.32582031 -4.69320312 20.65164062 -4.53515625 19.95703125 C-3.91516143 16.53122048 -3.6647426 13.16106553 -3.4375 9.6875 C-3.35371094 8.43324219 -3.26992187 7.17898437 -3.18359375 5.88671875 C-3.12300781 4.93410156 -3.06242188 3.98148437 -3 3 C-2.67 3 -2.34 3 -2 3 C-2 5.97 -2 8.94 -2 12 C-1.34 12 -0.68 12 0 12 C0 8.04 0 4.08 0 0 Z " fill="#36188D" transform="translate(190,93)"/>
<path d="M0 0 C2.31 0 4.62 0 7 0 C6.67 0.66 6.34 1.32 6 2 C9.3 2.33 12.6 2.66 16 3 C16 3.99 16 4.98 16 6 C12.33333333 6 8.66666667 6 5 6 C2.66924071 6.95865509 2.66924071 6.95865509 1 10 C0.67 6.7 0.34 3.4 0 0 Z " fill="#4CB2D8" transform="translate(83,99)"/>
<path d="M0 0 C2.64 0 5.28 0 8 0 C8 2.31 8 4.62 8 7 C5.36 7 2.72 7 0 7 C0 4.69 0 2.38 0 0 Z " fill="#2CD6F1" transform="translate(77,62)"/>
<path d="M0 0 C0.66 0.66 1.32 1.32 2 2 C0.35 2.33 -1.3 2.66 -3 3 C-3.33 5.31 -3.66 7.62 -4 10 C-2.35 10 -0.7 10 1 10 C1 10.66 1 11.32 1 12 C-0.60875 11.6596875 -0.60875 11.6596875 -2.25 11.3125 C-5.92978576 10.64224175 -5.92978576 10.64224175 -8.4375 12.4375 C-8.953125 12.953125 -9.46875 13.46875 -10 14 C-9.625 12.0625 -9.625 12.0625 -9 10 C-8.34 9.67 -7.68 9.34 -7 9 C-6.59270772 6.67843403 -6.25561323 4.3431213 -6 2 C-4.02 1.34 -2.04 0.68 0 0 Z " fill="#42C2DF" transform="translate(96,79)"/>
<path d="M0 0 C0.33 0.99 0.66 1.98 1 3 C-0.65 3 -2.3 3 -4 3 C-4 3.66 -4 4.32 -4 5 C-13.41002278 8.44419134 -13.41002278 8.44419134 -18 8 C-17.01 7.67 -16.02 7.34 -15 7 C-15 6.34 -15 5.68 -15 5 C-10.05 3.35 -5.1 1.7 0 0 Z " fill="#112E90" transform="translate(172,133)"/>
<path d="M0 0 C0.75732422 0.00966797 1.51464844 0.01933594 2.29492188 0.02929688 C3.08060547 0.05443359 3.86628906 0.07957031 4.67578125 0.10546875 C5.87170898 0.12577148 5.87170898 0.12577148 7.09179688 0.14648438 C9.05758092 0.18179786 11.02301707 0.23560428 12.98828125 0.29296875 C12.98828125 0.62296875 12.98828125 0.95296875 12.98828125 1.29296875 C6.37018548 3.75551601 -0.01611391 3.48232347 -7.01171875 3.29296875 C-4.74810376 0.60821609 -3.50571314 -0.07907624 0 0 Z " fill="#1C8BC7" transform="translate(123.01171875,67.70703125)"/>
<path d="M0 0 C6.6 0 13.2 0 20 0 C20 0.99 20 1.98 20 3 C18.18757948 3.02687279 16.37504767 3.04633715 14.5625 3.0625 C13.55316406 3.07410156 12.54382813 3.08570312 11.50390625 3.09765625 C9 3 9 3 8 2 C6.65252916 1.76924918 5.29622435 1.58846937 3.9375 1.4375 C2.638125 1.293125 1.33875 1.14875 0 1 C0 0.67 0 0.34 0 0 Z " fill="#3160B9" transform="translate(139,61)"/>
<path d="M0 0 C1.60879422 0.39842559 3.21198173 0.81953157 4.8125 1.25 C5.70582031 1.48203125 6.59914062 1.7140625 7.51953125 1.953125 C10.37646099 3.15888432 11.38369034 4.40101703 13 7 C10.8125 7.75 10.8125 7.75 8 8 C5.375 6.125 5.375 6.125 3 4 C2.01 3.67 1.02 3.34 0 3 C0 2.01 0 1.02 0 0 Z " fill="#3C3AA1" transform="translate(169,65)"/>
<path d="M0 0 C-0.99 0.33 -1.98 0.66 -3 1 C-3 1.66 -3 2.32 -3 3 C-7.40914783 4.10228696 -11.48382401 4.07654536 -16 4 C-14 1 -14 1 -11.9375 0.3125 C-7.95069539 -0.11162815 -4.0049784 -0.07852899 0 0 Z " fill="#142D87" transform="translate(151,106)"/>
<path d="M0 0 C0 1.65 0 3.3 0 5 C-3.63 5 -7.26 5 -11 5 C-11.33 3.68 -11.66 2.36 -12 1 C-10.37512529 0.83211627 -8.75009558 0.66573213 -7.125 0.5 C-6.22007813 0.4071875 -5.31515625 0.314375 -4.3828125 0.21875 C-2 0 -2 0 0 0 Z M-11 2 C-11 2.33 -11 2.66 -11 3 C-8.03 3 -5.06 3 -2 3 C-2 2.67 -2 2.34 -2 2 C-4.97 2 -7.94 2 -11 2 Z " fill="#63A4CB" transform="translate(114,101)"/>
<path d="M0 0 C2.64 0 5.28 0 8 0 C8 0.33 8 0.66 8 1 C5.69 1 3.38 1 1 1 C1.33 1.99 1.66 2.98 2 4 C2.06802967 5.72795352 2.08495645 7.45835365 2.0625 9.1875 C2.05347656 10.08855469 2.04445313 10.98960938 2.03515625 11.91796875 C2.02355469 12.60503906 2.01195313 13.29210937 2 14 C1.01 14 0.02 14 -1 14 C-2.12029814 8.51053913 -1.79217969 5.16569441 0 0 Z " fill="#78CDEB" transform="translate(82,98)"/>
<path d="M0 0 C0.33 0 0.66 0 1 0 C1.02693575 2.12493141 1.04636628 4.24995912 1.0625 6.375 C1.07410156 7.55835938 1.08570313 8.74171875 1.09765625 9.9609375 C1 13 1 13 0 15 C-0.99 14.67 -1.98 14.34 -3 14 C-2.88570603 12.22844346 -2.75816963 10.45773771 -2.625 8.6875 C-2.55539063 7.70136719 -2.48578125 6.71523437 -2.4140625 5.69921875 C-2 3 -2 3 0 0 Z " fill="#041968" transform="translate(133,139)"/>
<path d="M0 0 C0.66 0 1.32 0 2 0 C2.72645428 3.54146464 3.1307334 7.01718536 3.25 10.625 C3.27578125 11.35976562 3.3015625 12.09453125 3.328125 12.8515625 C3 15 3 15 0 19 C0 12.73 0 6.46 0 0 Z " fill="#1991D3" transform="translate(85,136)"/>
<path d="M0 0 C1.41623216 -0.05447047 2.83308191 -0.09300508 4.25 -0.125 C5.03890625 -0.14820312 5.8278125 -0.17140625 6.640625 -0.1953125 C9.23883912 0.01977145 10.72015345 0.78653329 13 2 C15.32495277 2.38749213 17.65851268 2.72982839 20 3 C20 3.33 20 3.66 20 4 C12.68889006 4.3689719 6.78743178 3.81552726 0 1 C0 0.67 0 0.34 0 0 Z " fill="#0B2B79" transform="translate(127,91)"/>
<path d="M0 0 C0.7528125 -0.00773437 1.505625 -0.01546875 2.28125 -0.0234375 C4.5 0.375 4.5 0.375 8.5 3.375 C2.89 3.375 -2.72 3.375 -8.5 3.375 C-3.94594595 -0.04054054 -3.94594595 -0.04054054 0 0 Z " fill="#2458A5" transform="translate(147.5,68.625)"/>
<path d="M0 0 C2.86724686 0.57344937 3.8614515 0.8614515 6 3 C8.29629994 4.14814997 10.07698086 4.30769809 12.625 4.5625 C13.44226563 4.64628906 14.25953125 4.73007813 15.1015625 4.81640625 C15.72804688 4.87699219 16.35453125 4.93757812 17 5 C13.25411965 7.49725356 11.53780348 7.19025217 7.23046875 6.62109375 C3.83623636 5.67593972 2.11364142 3.72727925 0 1 C0 0.67 0 0.34 0 0 Z " fill="#5CC5E0" transform="translate(82,189)"/>
<path d="M0 0 C2.31 0 4.62 0 7 0 C4.01303575 3.33161397 1.17280278 5.34826557 -3 7 C-5.375 6.6875 -5.375 6.6875 -7 6 C-6.34 6 -5.68 6 -5 6 C-5 5.34 -5 4.68 -5 4 C-3.35 4 -1.7 4 0 4 C0 2.68 0 1.36 0 0 Z " fill="#2A3886" transform="translate(173,132)"/>
<path d="M0 0 C9.99562363 -0.63019694 9.99562363 -0.63019694 14.1875 2 C15.0846875 2.99 15.0846875 2.99 16 4 C14.08249714 3.91256669 12.16593335 3.8043811 10.25 3.6875 C9.18265625 3.62949219 8.1153125 3.57148437 7.015625 3.51171875 C3.8178932 2.96909846 2.37401309 2.14928855 0 0 Z " fill="#0C206C" transform="translate(136,91)"/>
<path d="M0 0 C1.98 0 3.96 0 6 0 C5.67 2.31 5.34 4.62 5 7 C3.35 7 1.7 7 0 7 C0 4.69 0 2.38 0 0 Z " fill="#25C4E9" transform="translate(81,82)"/>
<path d="M0 0 C2.97851562 0.1953125 2.97851562 0.1953125 5.95703125 0.390625 C5.62703125 1.710625 5.29703125 3.030625 4.95703125 4.390625 C1.65703125 4.390625 -1.64296875 4.390625 -5.04296875 4.390625 C-2.04296875 0.390625 -2.04296875 0.390625 0 0 Z " fill="#20A0D2" transform="translate(92.04296875,97.609375)"/>
<path d="M0 0 C1.98 0 3.96 0 6 0 C6.33 1.65 6.66 3.3 7 5 C5.02 5 3.04 5 1 5 C0.67 3.35 0.34 1.7 0 0 Z " fill="#22C9E9" transform="translate(71,88)"/>
<path d="M0 0 C-0.99 0.66 -1.98 1.32 -3 2 C-2.67 2.66 -2.34 3.32 -2 4 C-5.96 4 -9.92 4 -14 4 C-9.76211122 -0.23788878 -5.80470633 -0.17072666 0 0 Z " fill="#2273B8" transform="translate(141,68)"/>
<path d="M0 0 C0 1.98 0 3.96 0 6 C-1.65 6.33 -3.3 6.66 -5 7 C-5.33 5.02 -5.66 3.04 -6 1 C-3.92446352 0.4465236 -2.15634036 0 0 0 Z " fill="#399FCE" transform="translate(97,174)"/>
<path d="M0 0 C1.32 0 2.64 0 4 0 C4.28571429 8.57142857 4.28571429 8.57142857 2 12 C1.67 12 1.34 12 1 12 C0.67 8.04 0.34 4.08 0 0 Z " fill="#72CDE8" transform="translate(80,119)"/>
<path d="M0 0 C3.1087919 0.30878573 4.56644261 0.48371065 6.6171875 2.92578125 C7.03226563 3.71339844 7.44734375 4.50101562 7.875 5.3125 C8.30554688 6.09238281 8.73609375 6.87226562 9.1796875 7.67578125 C10.10121562 10.28677758 9.94771526 11.44350882 9 14 C8.60167969 13.24074219 8.20335937 12.48148438 7.79296875 11.69921875 C7.26316406 10.70535156 6.73335937 9.71148437 6.1875 8.6875 C5.66542969 7.70136719 5.14335937 6.71523437 4.60546875 5.69921875 C3.2280124 3.38334932 2.00469409 1.76388999 0 0 Z " fill="#2D1B81" transform="translate(176,80)"/>
<path d="M0 0 C3.59644423 1.19881474 4.49927278 2.75151043 6.28125 6.01171875 C7.42305268 9.17029248 6.78038794 11.81341593 6 15 C5.67 15 5.34 15 5 15 C4.80664062 14.33613281 4.61328125 13.67226562 4.4140625 12.98828125 C2.47248648 6.40210691 2.47248648 6.40210691 0 0 Z " fill="#2F266B" transform="translate(177,82)"/>
<path d="M0 0 C1.53760842 3.07521683 0.36599236 5.34675118 -0.4375 8.625 C-0.72496094 9.81351563 -1.01242188 11.00203125 -1.30859375 12.2265625 C-1.53675781 13.14179687 -1.76492187 14.05703125 -2 15 C-2.33 15 -2.66 15 -3 15 C-4.10369573 9.18051343 -4.29898908 6.20225201 -1 1 C-0.67 0.67 -0.34 0.34 0 0 Z " fill="#0E5BA3" transform="translate(110,111)"/>
<path d="M0 0 C0.99 0.33 1.98 0.66 3 1 C3.73046875 2.84765625 3.73046875 2.84765625 4.1875 5.0625 C4.34605469 5.79597656 4.50460938 6.52945313 4.66796875 7.28515625 C4.83232422 8.13400391 4.83232422 8.13400391 5 9 C2.5625 8.375 2.5625 8.375 0 7 C-0.875 3.9375 -0.875 3.9375 -1 1 C-0.67 0.67 -0.34 0.34 0 0 Z " fill="#492E8A" transform="translate(189,84)"/>
<path d="M0 0 C-2 3 -2 3 -4.1640625 3.51171875 C-4.97617188 3.56972656 -5.78828125 3.62773438 -6.625 3.6875 C-7.85089844 3.78611328 -7.85089844 3.78611328 -9.1015625 3.88671875 C-9.72804688 3.92410156 -10.35453125 3.96148437 -11 4 C-10.67 3.34 -10.34 2.68 -10 2 C-9.34 2 -8.68 2 -8 2 C-8 1.34 -8 0.68 -8 0 C-2.25 -1.125 -2.25 -1.125 0 0 Z " fill="#1BA4D3" transform="translate(101,91)"/>
<path d="M0 0 C0.928125 0.474375 1.85625 0.94875 2.8125 1.4375 C7.68839162 3.56443214 12.74533582 3.72443895 18 4 C18 4.33 18 4.66 18 5 C15.93816367 5.08150744 13.87538651 5.1394194 11.8125 5.1875 C10.08966797 5.23970703 10.08966797 5.23970703 8.33203125 5.29296875 C4.70842376 4.97436317 2.85360856 4.21947332 0 2 C0 1.34 0 0.68 0 0 Z " fill="#0D5AA0" transform="translate(112,91)"/>
<path d="M0 0 C0.33 0 0.66 0 1 0 C1.38922918 1.28745036 1.76098036 2.58019597 2.125 3.875 C2.33382812 4.59429687 2.54265625 5.31359375 2.7578125 6.0546875 C2.83773437 6.69664062 2.91765625 7.33859375 3 8 C1 10 1 10 -0.9453125 10.1953125 C-2.96354167 10.13020833 -4.98177083 10.06510417 -7 10 C-7 9.67 -7 9.34 -7 9 C-4.69 9 -2.38 9 0 9 C0 7.68 0 6.36 0 5 C-1.32 4.67 -2.64 4.34 -4 4 C-2.68 4 -1.36 4 0 4 C0 2.68 0 1.36 0 0 Z " fill="#4AB9E4" transform="translate(97,176)"/>
<path d="M0 0 C0.625 1.875 0.625 1.875 1 4 C-1 6 -1 6 -4.125 6.125 C-5.548125 6.063125 -5.548125 6.063125 -7 6 C-4.74259377 3.66475218 -2.7194239 1.81294927 0 0 Z " fill="#1E2281" transform="translate(182,126)"/>
<path d="M0 0 C0.99 0.33 1.98 0.66 3 1 C3 1.99 3 2.98 3 4 C0 6 0 6 -4 6 C-2.84826645 3.53199953 -1.95216435 1.95216435 0 0 Z " fill="#21B1DA" transform="translate(90,89)"/>
<path d="M0 0 C2.64 0 5.28 0 8 0 C8 0.99 8 1.98 8 3 C2.25 4.125 2.25 4.125 0 3 C0 2.01 0 1.02 0 0 Z " fill="#2EE5F4" transform="translate(77,62)"/>
<path d="M0 0 C0.33 0 0.66 0 1 0 C1.09796875 0.61488281 1.1959375 1.22976562 1.296875 1.86328125 C2.13291046 6.99409305 2.13291046 6.99409305 5.125 11.0625 C5.74375 11.371875 6.3625 11.68125 7 12 C6.01 12.66 5.02 13.32 4 14 C1.46564334 11.7962116 0.46308519 10.33421339 0 7 C-0.03888349 4.66699067 -0.0448635 2.33290199 0 0 Z " fill="#1875AE" transform="translate(110,84)"/>
<path d="M0 0 C1.98 0 3.96 0 6 0 C4.90809958 2.18380083 3.8590123 3.42698959 2 5 C1.01 5 0.02 5 -1 5 C-0.67 3.35 -0.34 1.7 0 0 Z " fill="#2BDEF2" transform="translate(65,72)"/>
<path d="M0 0 C1.37095624 3.69037278 0.60010967 5.70883835 -0.9375 9.25 C-1.31777344 10.14203125 -1.69804687 11.0340625 -2.08984375 11.953125 C-2.39019531 12.62859375 -2.69054687 13.3040625 -3 14 C-3.66 12.68 -4.32 11.36 -5 10 C-4.01 9.67 -3.02 9.34 -2 9 C-1.19436362 6.89415562 -1.19436362 6.89415562 -0.8125 4.4375 C-0.65394531 3.61121094 -0.49539062 2.78492187 -0.33203125 1.93359375 C-0.22246094 1.29550781 -0.11289063 0.65742187 0 0 Z " fill="#4D3E82" transform="translate(193,107)"/>
<path d="M0 0 C2.64 0 5.28 0 8 0 C6.68 0.33 5.36 0.66 4 1 C4.33 1.99 4.66 2.98 5 4 C2.03 3.505 2.03 3.505 -1 3 C-0.67 2.01 -0.34 1.02 0 0 Z " fill="#A6ECF3" transform="translate(82,73)"/>
<path d="M0 0 C2.35953094 2.35953094 2.49141413 3.77895617 3 7 C2.01 7.495 2.01 7.495 1 8 C1 9.32 1 10.64 1 12 C0.34 12 -0.32 12 -1 12 C-1.08159574 7.83861737 -0.98248524 4.0527516 0 0 Z " fill="#1DAFE2" transform="translate(83,177)"/>
<path d="M0 0 C0.99 0.33 1.98 0.66 3 1 C3.6875 3.0625 3.6875 3.0625 4 5 C2.35 5 0.7 5 -1 5 C-1 1 -1 1 0 0 Z " fill="#0E5CB9" transform="translate(133,157)"/>
<path d="M0 0 C0.66 0.33 1.32 0.66 2 1 C-0.51407619 5.28324091 -2.12314139 7.64531705 -7 9 C-6.02180976 7.68677212 -5.0424189 6.37443848 -4.0625 5.0625 C-3.51722656 4.33160156 -2.97195312 3.60070312 -2.41015625 2.84765625 C-1 1 -1 1 0 0 Z " fill="#2C3365" transform="translate(179,113)"/>
<path d="M0 0 C0.66 0 1.32 0 2 0 C3.38125018 2.76250036 3.19079306 4.94731099 3 8 C2.34 8.66 1.68 9.32 1 10 C0.67 6.7 0.34 3.4 0 0 Z " fill="#1D0B5D" transform="translate(183,92)"/>
<path d="M0 0 C0.99 0 1.98 0 3 0 C3.66 1.98 4.32 3.96 5 6 C3.68 6 2.36 6 1 6 C0.67 4.02 0.34 2.04 0 0 Z " fill="#3C2188" transform="translate(186,79)"/>
<path d="M0 0 C0 0.66 0 1.32 0 2 C-4.455 2.495 -4.455 2.495 -9 3 C-8.01 2.67 -7.02 2.34 -6 2 C-6 1.34 -6 0.68 -6 0 C-3.50907189 -1.24546405 -2.58919267 -0.7767578 0 0 Z " fill="#103B95" transform="translate(163,138)"/>
<path d="M0 0 C0.33 0 0.66 0 1 0 C1 1.65 1 3.3 1 5 C0.34 5 -0.32 5 -1 5 C-1 7.97 -1 10.94 -1 14 C-1.33 14 -1.66 14 -2 14 C-2.05410687 12.22950311 -2.09284119 10.45853151 -2.125 8.6875 C-2.14820312 7.70136719 -2.17140625 6.71523437 -2.1953125 5.69921875 C-2 3 -2 3 0 0 Z " fill="#1698CA" transform="translate(109,76)"/>
<path d="M0 0 C0.99 0 1.98 0 3 0 C2.67 1.65 2.34 3.3 2 5 C0.68 4.67 -0.64 4.34 -2 4 C-1.34 2.68 -0.68 1.36 0 0 Z " fill="#1BBCE6" transform="translate(84,126)"/>
<path d="M0 0 C0.66 0.33 1.32 0.66 2 1 C1.125 4.875 1.125 4.875 0 6 C-1.66617115 6.04063832 -3.33388095 6.042721 -5 6 C-4.01 5.67 -3.02 5.34 -2 5 C-0.78130071 2.49552484 -0.78130071 2.49552484 0 0 Z " fill="#26B4E1" transform="translate(100,188)"/>
<path d="M0 0 C0.99 0.33 1.98 0.66 3 1 C2.60196439 3.88575819 2.20990931 4.82189513 -0.0625 6.75 C-0.701875 7.1625 -1.34125 7.575 -2 8 C-1.125 2.25 -1.125 2.25 0 0 Z " fill="#21B6E1" transform="translate(109,67)"/>
</svg>
